# Exported from Wings 3D 0.99.02
mtllib shortsword.mtl
o cube2
#13 vertices, 6 faces
v -0.31079563 10.37163925 -1.1895849e-2
v 0.31279561 10.37163925 -1.1895849e-2
v -0.33458802 3.48436642 -1.1895849e-2
v 0.33658800 3.48436642 -1.1895849e-2
v 0.58739495 4.01874399 -1.1895849e-2
v -0.58539498 4.01874399 -1.1895849e-2
v 1.0000009e-3 4.01874399 0.15447553
v 1.0000009e-3 4.01874399 -0.17826724
v 1.0000000e-3 11.48624802 -1.1895849e-2
v 1.0000006e-3 8.65957355 -9.5081545e-2
v 1.0000006e-3 8.65957355 7.1289837e-2
v 0.45595872 8.69686127 -1.1895849e-2
v -0.45395875 8.69686127 -1.1895849e-2
vn -0.99755752 6.9849785e-2 1.0853046e-8
vn 0.99755752 6.9849782e-2 1.0853046e-8
vn 0.0000000e+0 -1.00000000 9.5997183e-9
vn 0.0000000e+0 -1.00000000 9.5997183e-9
vn 0.75920030 -0.65085706 1.5018174e-8
vn -0.75920028 -0.65085708 1.5018174e-8
vn 3.9102218e-9 -5.6072582e-2 0.99842670
vn 3.9102222e-9 -5.6072587e-2 -0.99842669
vn 3.9202938e-7 1.00000000 1.5537695e-7
vn 5.8804194e-9 1.4999946e-2 -0.99988749
vn 5.8804189e-9 1.4999944e-2 0.99988749
vn 0.99755752 6.9849782e-2 1.0853046e-8
vn -0.99755752 6.9849785e-2 1.0853046e-8
g cube2_default3
usemtl default3
f 1//1 13//13 6//6 7//7 11//11 9//9
f 2//2 12//12 5//5 8//8 10//10 9//9
f 3//3 6//6 8//8 5//5 4//4
f 4//4 5//5 7//7 6//6 3//3
f 9//9 10//10 8//8 6//6 13//13 1//1
f 9//9 11//11 7//7 5//5 12//12 2//2
o cylinder3
#70 vertices, 75 faces
v 0.26072889 2.91515207 -0.15005782
v 0.26072889 2.91515207 0.14790570
v 0.34075260 3.01463604 -1.7499937e-2
v 0.90065664 3.05070519 -1.8807292e-2
v 0.25883797 3.52578592 -0.14904694
v 0.25883797 3.52578592 0.14689706
v 0.61456108 3.52846313 0.16762707
v 0.61456108 3.52846313 -0.16967830
v 0.76378649 3.27716446 -0.31426388
v 0.76378649 3.27716446 0.31221268
v 0.34597829 3.22046900 0.19720754
v 0.34597829 3.22046900 -0.19935742
v 1.09202504 3.54976010 0.26801419
v 1.30885899 3.49584103 -1.6793236e-2
v 1.09202504 3.54976010 -0.27110937
v 0.84702545 3.60735440 -0.14668760
v 0.84702545 3.60735440 0.14359240
v 0.99944276 3.92883754 0.19858903
v 1.13600433 4.06111622 -7.9970146e-3
v 0.99944276 3.92883754 -0.20230579
v 0.89280468 3.77128220 -0.11096244
v 0.89280468 3.77128220 0.10724568
v 0.72316366 4.14777231 -1.5475983e-3
v 0.26072889 1.41100189 0.14790570
v 0.26072889 1.41100189 -0.15005782
v 0.33688463 1.31431028 -0.19351426
v 0.33688463 1.31431028 0.19133325
v -0.25872889 2.91515207 -0.15005782
v -0.25872889 2.91515207 0.14790570
v 9.9999994e-4 2.91515207 0.29688747
v 9.9999994e-4 2.91515207 -0.29903957
v -0.33875263 3.01463604 -1.7499937e-2
v -0.89865667 3.05070519 -1.8807292e-2
v -0.25683799 3.52578592 -0.14904694
v 1.0000000e-3 3.52578592 -0.29701892
v 1.0000000e-3 3.52578592 0.29486907
v -0.25683799 3.52578592 0.14689706
v -0.61256111 3.52846313 0.16762707
v -0.61256111 3.52846313 -0.16967830
v -0.76178652 3.27716446 -0.31426388
v -0.76178652 3.27716446 0.31221268
v -0.34397832 3.22046900 0.19720754
v 1.0000000e-3 3.22046900 0.39549005
v 1.0000000e-3 3.22046900 -0.39763987
v -0.34397832 3.22046900 -0.19935742
v -1.09002495 3.54976010 0.26801419
v -1.30685890 3.49584103 -1.6793236e-2
v -1.09002495 3.54976010 -0.27110937
v -0.84502548 3.60735440 -0.14668760
v -0.84502548 3.60735440 0.14359240
v -0.99744278 3.92883754 0.19858903
v -1.13400424 4.06111622 -7.9970146e-3
v -0.99744278 3.92883754 -0.20230579
v -0.89080471 3.77128220 -0.11096244
v -0.89080471 3.77128220 0.10724568
v -0.72116369 4.14777231 -1.5475983e-3
v 9.9999994e-4 1.41100189 -0.29903960
v 9.9999994e-4 1.41100189 0.29688747
v -0.25872889 1.41100189 0.14790570
v -0.25872889 1.41100189 -0.15005782
v -0.33488463 1.31431028 -0.19351426
v -0.33488463 1.31431028 0.19133325
v 9.9999917e-4 1.31431028 0.38375698
v 9.9999917e-4 1.31389805 -0.38593801
v 9.9999917e-4 1.10424599 -0.38585570
v 0.33688463 1.10465810 -0.19343196
v 0.33688463 1.10465810 0.19141554
v 9.9999917e-4 1.10465810 0.38383928
v -0.33488463 1.10465810 0.19141554
v -0.33488463 1.10465810 -0.19343196
vn 0.84144568 -0.27578790 -0.46466139
vn 0.84746194 -0.27562145 0.45369713
vn 0.68467726 -0.72835923 -2.6643598e-2
vn 0.39666822 -0.91739448 -3.2275171e-2
vn 9.1938955e-2 0.81369815 -0.57397086
vn 9.1868025e-2 0.81369501 0.57398667
vn -0.21607329 0.81099184 0.54369529
vn -0.21662831 0.81063238 -0.54401041
vn 5.1495874e-2 -0.17127201 -0.98387706
vn 6.3827314e-2 -0.19705687 0.97831215
vn 0.42539121 -0.20712674 0.88098855
vn 0.41094746 -0.19420910 -0.89073285
vn 0.20508490 9.9348672e-2 0.97368888
vn 0.97600210 -0.21586069 -2.8706524e-2
vn 0.18304656 0.10643045 -0.97732621
vn -0.63428775 0.56641146 -0.52617213
vn -0.63367251 0.56747724 0.52576491
vn -7.0810087e-2 0.36106869 0.92984694
vn 0.66474561 0.74683604 -1.8687007e-2
vn -8.6237387e-2 0.35356774 -0.93142524
vn -0.88119755 -2.1445659e-2 -0.47226154
vn -0.88115700 -2.1160792e-2 0.47235004
vn -0.86764013 0.49712853 -7.9894382e-3
vn 0.80346186 0.37060699 0.46593937
vn 0.80344476 0.37039960 -0.46613372
vn 0.80339505 0.37033929 -0.46626730
vn 0.80335120 0.37072325 0.46603769
vn -0.84144564 -0.27578796 -0.46466142
vn -0.84746190 -0.27562151 0.45369715
vn 2.7903762e-9 -0.15619720 0.98772589
vn 2.7903633e-9 -0.15619382 -0.98772642
vn -0.68467718 -0.72835930 -2.6643601e-2
vn -0.39666830 -0.91739445 -3.2275172e-2
vn -9.1938945e-2 0.81369815 -0.57397087
vn 1.0136816e-8 0.83680638 -0.54749894
vn 1.0136816e-8 0.83680641 0.54749890
vn -9.1868015e-2 0.81369501 0.57398667
vn 0.21607331 0.81099184 0.54369529
vn 0.21662832 0.81063238 -0.54401040
vn -5.1495887e-2 -0.17127198 -0.98387707
vn -6.3827329e-2 -0.19705684 0.97831216
vn -0.42539118 -0.20712676 0.88098856
vn 1.3998374e-8 3.1189755e-3 0.99999514
vn 1.3998349e-8 3.1223795e-3 -0.99999513
vn -0.41094742 -0.19420912 -0.89073286
vn -0.20508491 9.9348720e-2 0.97368887
vn -0.97600211 -0.21586064 -2.8706521e-2
vn -0.18304658 0.10643050 -0.97732620
vn 0.63428779 0.56641147 -0.52617207
vn 0.63367255 0.56747724 0.52576485
vn 7.0810085e-2 0.36106874 0.92984692
vn -0.66474569 0.74683597 -1.8687010e-2
vn 8.6237386e-2 0.35356778 -0.93142522
vn 0.88119757 -2.1445633e-2 -0.47226150
vn 0.88115702 -2.1160767e-2 0.47235000
vn 0.86764011 0.49712857 -7.9894412e-3
vn -3.1496107e-9 0.36814613 -0.92976794
vn -3.1498534e-9 0.36863601 0.92957382
vn -0.80346186 0.37060699 0.46593937
vn -0.80344477 0.37039960 -0.46613372
vn -0.80339506 0.37033929 -0.46626730
vn -0.80335120 0.37072325 0.46603768
vn -3.2347032e-9 0.36875712 0.92952578
vn -3.2349297e-9 0.36791462 -0.92985958
vn -3.2531880e-9 -0.49960923 -0.86625090
vn 0.74908515 -0.50053037 -0.43398247
vn 0.74909664 -0.50019728 0.43434652
vn -3.2532869e-9 -0.49894428 0.86663407
vn -0.74909664 -0.50019728 0.43434652
vn -0.74908515 -0.50053037 -0.43398247
g cylinder3_default2
usemtl default2
f 14//14 16//16 15//15
f 14//14 25//25 16//16
f 14//14 44//44 57//57 25//25
f 15//15 37//37 38//38 14//14
f 15//15 43//43 71//71 37//37
f 16//16 24//24 15//15
f 16//16 25//25 22//22 17//17
f 17//17 23//23 24//24 16//16
f 17//17 27//27 26//26 23//23
f 18//18 48//48 49//49 19//19
f 19//19 20//20 21//21 18//18
f 19//19 24//24 23//23 20//20
f 19//19 49//49 56//56 24//24
f 20//20 30//30 29//29 21//21
f 21//21 22//22 25//25 18//18
f 21//21 29//29 28//28 22//22
f 22//22 28//28 27//27 17//17
f 23//23 26//26 30//30 20//20
f 24//24 56//56 43//43 15//15
f 25//25 57//57 48//48 18//18
f 26//26 31//31 35//35 30//30
f 27//27 32//32 31//31 26//26
f 28//28 33//33 32//32 27//27
f 29//29 34//34 33//33 28//28
f 30//30 35//35 34//34 29//29
f 31//31 36//36 35//35
f 32//32 36//36 31//31
f 33//33 36//36 32//32
f 34//34 36//36 33//33
f 35//35 36//36 34//34
f 37//37 40//40 39//39 38//38
f 37//37 71//71 76//76 40//40
f 38//38 70//70 44//44 14//14
f 39//39 77//77 70//70 38//38
f 39//39 79//79 78//78 77//77
f 40//40 80//80 79//79 39//39
f 41//41 58//58 57//57 44//44
f 41//41 73//73 72//72 42//42
f 42//42 45//45 41//41
f 42//42 55//55 45//45
f 42//42 72//72 71//71 43//43
f 43//43 56//56 55//55 42//42
f 44//44 70//70 73//73 41//41
f 45//45 55//55 54//54 46//46
f 45//45 58//58 41//41
f 46//46 53//53 58//58 45//45
f 46//46 60//60 61//61 53//53
f 47//47 50//50 49//49 48//48
f 47//47 52//52 51//51 50//50
f 47//47 58//58 53//53 52//52
f 48//48 57//57 58//58 47//47
f 50//50 55//55 56//56 49//49
f 51//51 54//54 55//55 50//50
f 51//51 63//63 59//59 54//54
f 52//52 62//62 63//63 51//51
f 53//53 61//61 62//62 52//52
f 54//54 59//59 60//60 46//46
f 59//59 64//64 65//65 60//60
f 60//60 65//65 66//66 61//61
f 61//61 66//66 67//67 62//62
f 62//62 67//67 68//68 63//63
f 63//63 68//68 64//64 59//59
f 64//64 69//69 65//65
f 65//65 69//69 66//66
f 66//66 69//69 67//67
f 67//67 69//69 68//68
f 68//68 69//69 64//64
f 70//70 77//77 74//74 73//73
f 72//72 75//75 76//76 71//71
f 73//73 74//74 75//75 72//72
f 74//74 83//83 82//82 75//75
f 75//75 82//82 81//81 76//76
f 76//76 81//81 80//80 40//40
f 77//77 78//78 83//83 74//74
f 79//79 80//80 81//81 82//82 83//83 78//78
