# Wavefront OBJ exported by MilkShape 3D

mtllib tris.mtl

v 9.543403 80.735107 11.530524
v 2.787364 75.405197 5.721261
v 2.787364 80.735107 13.365869
v -3.968678 80.735107 11.530524
v 8.324923 75.405197 0.000000
v 16.299446 80.735107 -0.333332
v 7.583033 75.405197 2.860631
v 14.489168 80.735107 6.516268
v 5.556146 75.405197 4.954756
v 9.543403 80.735107 11.530524
v 2.787364 75.405197 5.721261
v 2.787364 80.735107 13.365869
v 0.018581 75.405197 4.954756
v -3.968678 80.735107 11.530524
v -2.008307 75.405197 2.860631
v -8.914442 80.735107 6.516268
v -2.750202 75.405197 0.000000
v -10.724718 80.735107 -0.333332
v -2.008307 75.405197 -2.860630
v -8.914442 80.735107 -7.182932
v 0.018581 75.405197 -4.954756
v -3.968678 80.735107 -12.197188
v 2.787364 75.405197 -5.721261
v 2.787364 80.735107 -14.032532
v 5.556146 75.405197 -4.954756
v 9.543403 80.735107 -12.197188
v 7.583033 75.405197 -2.860630
v 14.489168 80.735107 -7.182932
v 2.787364 80.735107 -0.333332
v 13.454031 0.068443 0.000000
v 13.382863 3.790666 -0.000000
v 8.159088 7.787252 0.000000
v 8.159088 28.659897 0.000000
v 8.159088 59.532547 -0.000000
v 8.324923 75.405197 0.000000
v 12.024967 0.068443 5.333333
v 11.963313 3.790666 5.443576
v 7.439414 7.787252 2.754960
v 7.439414 28.659897 2.754960
v 7.439414 59.532547 2.754960
v 7.583033 75.405197 2.860631
v 8.120697 0.068443 9.237604
v 8.085111 3.790666 9.428557
v 5.473227 7.787252 4.771729
v 5.473227 28.659897 4.771729
v 5.473227 59.532547 4.771729
v 5.556146 75.405197 4.954756
v 2.787364 0.068443 10.666667
v 2.787364 3.790666 10.887156
v 2.787364 7.787252 5.509919
v 2.787364 28.659897 5.509919
v 2.787364 59.532547 5.509919
v 2.787364 75.405197 5.721261
v -2.545970 0.068443 9.237604
v -2.510382 3.790666 9.428557
v 0.101500 7.787252 4.771729
v 0.101500 28.659897 4.771729
v 0.101500 59.532547 4.771729
v 0.018581 75.405197 4.954756
v -6.450241 0.068443 5.333333
v -6.388585 3.790666 5.443576
v -1.864688 7.787252 2.754960
v -1.864688 28.659897 2.754960
v -1.864688 59.532547 2.754960
v -2.008307 75.405197 2.860631
v -7.879303 0.068443 0.000000
v -7.808126 3.790666 -0.000000
v -2.584362 7.787252 0.000000
v -2.584362 28.659897 0.000000
v -2.584362 59.532547 -0.000000
v -2.750202 75.405197 0.000000
v -6.450241 0.068443 -5.333333
v -6.388585 3.790666 -5.443576
v -1.864688 7.787252 -2.754960
v -1.864688 28.659897 -2.754960
v -1.864688 59.532547 -2.754960
v -2.008307 75.405197 -2.860630
v -2.545970 0.068443 -9.237604
v -2.510382 3.790666 -9.428555
v 0.101500 7.787252 -4.771729
v 0.101500 28.659897 -4.771729
v 0.101500 59.532547 -4.771729
v 0.018581 75.405197 -4.954756
v 2.787364 0.068443 -10.666667
v 2.787364 3.790666 -10.887150
v 2.787364 7.787252 -5.509919
v 2.787364 28.659897 -5.509919
v 2.787364 59.532547 -5.509919
v 2.787364 75.405197 -5.721261
v 8.120697 0.068443 -9.237604
v 8.085111 3.790666 -9.428555
v 5.473227 7.787252 -4.771729
v 5.473227 28.659897 -4.771729
v 5.473227 59.532547 -4.771729
v 5.556146 75.405197 -4.954756
v 12.024967 0.068443 -5.333333
v 11.963313 3.790666 -5.443576
v 7.439414 7.787252 -2.754960
v 7.439414 28.659897 -2.754960
v 7.439414 59.532547 -2.754960
v 7.583033 75.405197 -2.860630
v 2.787364 0.068443 0.000000
# 102 vertices

vt 0.424836 0.620955
vt 0.443354 0.620955
vt 0.443354 0.518282
vt 0.461872 0.620955
vt 0.387800 0.620955
vt 0.387800 0.518282
vt 0.406318 0.518282
vt 0.406318 0.620955
vt 0.424836 0.518282
vt 0.461872 0.518282
vt 0.480390 0.518282
vt 0.480390 0.620955
vt 0.498909 0.620955
vt 0.498909 0.518282
vt 0.517427 0.518282
vt 0.517427 0.620955
vt 0.535945 0.620955
vt 0.535945 0.518282
vt 0.554463 0.518282
vt 0.554463 0.620955
vt 0.572981 0.620955
vt 0.572981 0.518282
vt 0.591499 0.518282
vt 0.591499 0.620955
vt 0.610018 0.620955
vt 0.610018 0.518282
vt 0.387800 0.004915
vt 0.387800 0.107589
vt 0.406318 0.107589
vt 0.406318 0.004915
vt 0.387800 0.210262
vt 0.406318 0.210262
vt 0.387800 0.312935
vt 0.406318 0.312935
vt 0.387800 0.415608
vt 0.406318 0.415608
vt 0.424836 0.004915
vt 0.424836 0.107589
vt 0.424836 0.210262
vt 0.424836 0.312935
vt 0.424836 0.415608
vt 0.443354 0.107589
vt 0.443354 0.004915
vt 0.443354 0.210262
vt 0.443354 0.312935
vt 0.443354 0.415608
vt 0.461872 0.004915
vt 0.461872 0.107589
vt 0.461872 0.210262
vt 0.461872 0.312935
vt 0.461872 0.415608
vt 0.480390 0.107589
vt 0.480390 0.004915
vt 0.480390 0.210262
vt 0.480390 0.312935
vt 0.480390 0.415608
vt 0.498909 0.004915
vt 0.498909 0.107589
vt 0.498909 0.210262
vt 0.498909 0.312935
vt 0.498909 0.415608
vt 0.517427 0.107589
vt 0.517427 0.004915
vt 0.517427 0.210262
vt 0.517427 0.312935
vt 0.517427 0.415608
vt 0.535945 0.004915
vt 0.535945 0.107589
vt 0.535945 0.210262
vt 0.535945 0.312935
vt 0.535945 0.415608
vt 0.554463 0.107589
vt 0.554463 0.004915
vt 0.554463 0.210262
vt 0.554463 0.312935
vt 0.554463 0.415608
vt 0.572981 0.004915
vt 0.572981 0.107589
vt 0.572981 0.210262
vt 0.572981 0.312935
vt 0.572981 0.415608
vt 0.591499 0.107589
vt 0.591499 0.004915
vt 0.591499 0.210262
vt 0.591499 0.312935
vt 0.591499 0.415608
vt 0.610018 0.004915
vt 0.610018 0.107589
vt 0.610018 0.210262
vt 0.610018 0.312935
vt 0.610018 0.415608
# 91 texture coordinates

vn 0.288622 -0.821991 0.490946
vn 0.000000 -0.820305 0.571926
vn 0.000000 -0.474494 0.880259
vn -0.288621 -0.821991 0.490946
vn 0.000000 1.000000 0.000000
vn 0.876677 -0.481079 0.000605
vn 0.556050 -0.831148 0.001079
vn 0.765229 -0.476996 0.432318
vn 0.489210 -0.825976 0.280068
vn 0.449245 -0.474853 0.756765
vn -0.449245 -0.474853 0.756765
vn -0.765229 -0.476996 0.432318
vn -0.489210 -0.825976 0.280068
vn -0.556051 -0.831148 0.001079
vn -0.876677 -0.481079 0.000605
vn -0.761654 -0.485614 -0.429025
vn -0.476355 -0.836604 -0.270516
vn -0.275592 -0.840472 -0.466536
vn -0.445595 -0.489870 -0.749314
vn 0.000000 -0.491924 -0.870638
vn 0.000000 -0.841779 -0.539822
vn 0.275592 -0.840472 -0.466536
vn 0.445595 -0.489870 -0.749314
vn 0.761654 -0.485614 -0.429025
vn 0.476355 -0.836604 -0.270516
vn 0.000000 -1.000000 0.000000
vn 0.999904 0.013877 -0.000000
vn 0.890044 0.455875 -0.000000
vn 0.777482 0.448015 0.441367
vn 0.866026 -0.000464 0.499999
vn 0.894269 0.447530 -0.000000
vn 0.778115 0.449163 0.439078
vn 1.000000 0.000000 0.000000
vn 0.870731 0.000000 0.491759
vn 0.999986 -0.005309 0.000000
vn 0.870718 -0.005576 0.491751
vn 0.504209 -0.036810 0.862797
vn 0.458453 0.435254 0.774838
vn 0.453642 0.452568 0.767719
vn 0.508256 0.000000 0.861206
vn 0.508836 -0.006249 0.860841
vn -0.000000 0.430280 0.902695
vn 0.000000 -0.059132 0.998250
vn 0.000000 0.454344 0.890826
vn 0.000000 0.000000 1.000000
vn 0.000000 -0.006657 0.999978
vn -0.504209 -0.036810 0.862797
vn -0.458453 0.435254 0.774838
vn -0.453641 0.452568 0.767719
vn -0.508256 0.000000 0.861206
vn -0.508835 -0.006249 0.860841
vn -0.777482 0.448015 0.441367
vn -0.866026 -0.000464 0.499999
vn -0.778115 0.449163 0.439078
vn -0.870731 0.000000 0.491759
vn -0.870718 -0.005576 0.491751
vn -0.999904 0.013878 -0.000000
vn -0.890043 0.455876 -0.000000
vn -0.894269 0.447530 0.000000
vn -1.000000 0.000000 0.000000
vn -0.999986 -0.005309 -0.000000
vn -0.777482 0.448015 -0.441367
vn -0.866026 -0.000464 -0.499999
vn -0.778115 0.449163 -0.439078
vn -0.870731 -0.000000 -0.491759
vn -0.870718 -0.005576 -0.491751
vn -0.504208 -0.036809 -0.862797
vn -0.458453 0.435254 -0.774839
vn -0.453641 0.452567 -0.767719
vn -0.508256 0.000000 -0.861206
vn -0.508835 -0.006249 -0.860841
vn -0.000000 0.430281 -0.902695
vn 0.000000 -0.059131 -0.998250
vn 0.000000 0.454344 -0.890827
vn 0.000000 0.000000 -1.000000
vn 0.000000 -0.006657 -0.999978
vn 0.504208 -0.036810 -0.862797
vn 0.458453 0.435254 -0.774839
vn 0.453642 0.452567 -0.767719
vn 0.508256 0.000000 -0.861206
vn 0.508836 -0.006249 -0.860841
vn 0.777482 0.448015 -0.441367
vn 0.866026 -0.000464 -0.499999
vn 0.778115 0.449163 -0.439078
vn 0.870731 -0.000000 -0.491759
vn 0.870718 -0.005576 -0.491751
# 86 normals

g firestand
usemtl Material01
s 1
f 1/1/1 3/2/2 2/3/3
f 2/3/3 3/2/2 4/4/4
s 2
f 6/5/5 29/5/5 8/5/5
s 1
f 5/6/6 6/5/7 7/7/8
f 6/5/7 8/8/9 7/7/8
s 2
f 8/5/5 29/5/5 10/5/5
s 1
f 7/7/8 8/8/9 10/1/1
f 7/7/8 10/1/1 9/9/10
s 2
f 10/5/5 29/5/5 12/5/5
s 1
f 9/9/10 10/1/1 11/3/3
s 2
f 12/5/5 29/5/5 14/5/5
s 1
f 11/3/3 14/4/4 13/10/11
s 2
f 14/5/5 29/5/5 16/5/5
s 1
f 13/10/11 14/4/4 15/11/12
f 14/4/4 16/12/13 15/11/12
s 2
f 16/5/5 29/5/5 18/5/5
s 1
f 15/11/12 16/12/13 18/13/14
f 15/11/12 18/13/14 17/14/15
s 2
f 18/5/5 29/5/5 20/5/5
s 1
f 17/14/15 18/13/14 19/15/16
f 18/13/14 20/16/17 19/15/16
s 2
f 20/5/5 29/5/5 22/5/5
s 1
f 19/15/16 20/16/17 22/17/18
f 19/15/16 22/17/18 21/18/19
s 2
f 22/5/5 29/5/5 24/5/5
s 1
f 21/18/19 22/17/18 23/19/20
f 22/17/18 24/20/21 23/19/20
s 2
f 24/5/5 29/5/5 26/5/5
s 1
f 23/19/20 24/20/21 26/21/22
f 23/19/20 26/21/22 25/22/23
s 2
f 26/5/5 29/5/5 28/5/5
s 1
f 25/22/23 26/21/22 27/23/24
f 26/21/22 28/24/25 27/23/24
s 2
f 28/5/5 29/5/5 6/5/5
s 1
f 27/23/24 28/24/25 6/25/7
f 27/23/24 6/25/7 5/26/6
s 2
f 30/5/26 36/5/26 102/5/26
s 1
f 30/27/27 31/28/28 37/29/29
f 30/27/27 37/29/29 36/30/30
f 31/28/28 32/31/31 37/29/29
f 32/31/31 38/32/32 37/29/29
f 32/31/31 33/33/33 39/34/34
f 32/31/31 39/34/34 38/32/32
f 33/33/33 34/35/35 39/34/34
f 34/35/35 40/36/36 39/34/34
f 34/35/35 35/6/6 41/7/8
f 34/35/35 41/7/8 40/36/36
s 2
f 36/5/26 42/5/26 102/5/26
s 1
f 36/30/30 37/29/29 42/37/37
f 37/29/29 43/38/38 42/37/37
f 37/29/29 38/32/32 44/39/39
f 37/29/29 44/39/39 43/38/38
f 38/32/32 39/34/34 44/39/39
f 39/34/34 45/40/40 44/39/39
f 39/34/34 40/36/36 46/41/41
f 39/34/34 46/41/41 45/40/40
f 40/36/36 41/7/8 46/41/41
f 41/7/8 47/9/10 46/41/41
s 2
f 42/5/26 48/5/26 102/5/26
s 1
f 42/37/37 43/38/38 49/42/42
f 42/37/37 49/42/42 48/43/43
f 43/38/38 44/39/39 49/42/42
f 44/39/39 50/44/44 49/42/42
f 44/39/39 45/40/40 51/45/45
f 44/39/39 51/45/45 50/44/44
f 45/40/40 46/41/41 51/45/45
f 46/41/41 52/46/46 51/45/45
f 46/41/41 47/9/10 53/3/3
f 46/41/41 53/3/3 52/46/46
s 2
f 48/5/26 54/5/26 102/5/26
s 1
f 48/43/43 49/42/42 54/47/47
f 49/42/42 55/48/48 54/47/47
f 49/42/42 50/44/44 56/49/49
f 49/42/42 56/49/49 55/48/48
f 50/44/44 51/45/45 56/49/49
f 51/45/45 57/50/50 56/49/49
f 51/45/45 52/46/46 58/51/51
f 51/45/45 58/51/51 57/50/50
f 52/46/46 53/3/3 58/51/51
f 53/3/3 59/10/11 58/51/51
s 2
f 54/5/26 60/5/26 102/5/26
s 1
f 54/47/47 55/48/48 61/52/52
f 54/47/47 61/52/52 60/53/53
f 55/48/48 56/49/49 61/52/52
f 56/49/49 62/54/54 61/52/52
f 56/49/49 57/50/50 63/55/55
f 56/49/49 63/55/55 62/54/54
f 57/50/50 58/51/51 63/55/55
f 58/51/51 64/56/56 63/55/55
f 58/51/51 59/10/11 65/11/12
f 58/51/51 65/11/12 64/56/56
s 2
f 60/5/26 66/5/26 102/5/26
s 1
f 60/53/53 61/52/52 66/57/57
f 61/52/52 67/58/58 66/57/57
f 61/52/52 62/54/54 68/59/59
f 61/52/52 68/59/59 67/58/58
f 62/54/54 63/55/55 68/59/59
f 63/55/55 69/60/60 68/59/59
f 63/55/55 64/56/56 70/61/61
f 63/55/55 70/61/61 69/60/60
f 64/56/56 65/11/12 70/61/61
f 65/11/12 71/14/15 70/61/61
s 2
f 66/5/26 72/5/26 102/5/26
s 1
f 66/57/57 67/58/58 73/62/62
f 66/57/57 73/62/62 72/63/63
f 67/58/58 68/59/59 73/62/62
f 68/59/59 74/64/64 73/62/62
f 68/59/59 69/60/60 75/65/65
f 68/59/59 75/65/65 74/64/64
f 69/60/60 70/61/61 75/65/65
f 70/61/61 76/66/66 75/65/65
f 70/61/61 71/14/15 77/15/16
f 70/61/61 77/15/16 76/66/66
s 2
f 72/5/26 78/5/26 102/5/26
s 1
f 72/63/63 73/62/62 78/67/67
f 73/62/62 79/68/68 78/67/67
f 73/62/62 74/64/64 80/69/69
f 73/62/62 80/69/69 79/68/68
f 74/64/64 75/65/65 80/69/69
f 75/65/65 81/70/70 80/69/69
f 75/65/65 76/66/66 82/71/71
f 75/65/65 82/71/71 81/70/70
f 76/66/66 77/15/16 82/71/71
f 77/15/16 83/18/19 82/71/71
s 2
f 78/5/26 84/5/26 102/5/26
s 1
f 78/67/67 79/68/68 85/72/72
f 78/67/67 85/72/72 84/73/73
f 79/68/68 80/69/69 85/72/72
f 80/69/69 86/74/74 85/72/72
f 80/69/69 81/70/70 87/75/75
f 80/69/69 87/75/75 86/74/74
f 81/70/70 82/71/71 87/75/75
f 82/71/71 88/76/76 87/75/75
f 82/71/71 83/18/19 89/19/20
f 82/71/71 89/19/20 88/76/76
s 2
f 84/5/26 90/5/26 102/5/26
s 1
f 84/73/73 85/72/72 90/77/77
f 85/72/72 91/78/78 90/77/77
f 85/72/72 86/74/74 92/79/79
f 85/72/72 92/79/79 91/78/78
f 86/74/74 87/75/75 92/79/79
f 87/75/75 93/80/80 92/79/79
f 87/75/75 88/76/76 94/81/81
f 87/75/75 94/81/81 93/80/80
f 88/76/76 89/19/20 94/81/81
f 89/19/20 95/22/23 94/81/81
s 2
f 90/5/26 96/5/26 102/5/26
s 1
f 90/77/77 91/78/78 97/82/82
f 90/77/77 97/82/82 96/83/83
f 91/78/78 92/79/79 97/82/82
f 92/79/79 98/84/84 97/82/82
f 92/79/79 93/80/80 99/85/85
f 92/79/79 99/85/85 98/84/84
f 93/80/80 94/81/81 99/85/85
f 94/81/81 100/86/86 99/85/85
f 94/81/81 95/22/23 101/23/24
f 94/81/81 101/23/24 100/86/86
s 2
f 96/5/26 30/5/26 102/5/26
s 1
f 96/83/83 97/82/82 30/87/27
f 97/82/82 31/88/28 30/87/27
f 97/82/82 98/84/84 32/89/31
f 97/82/82 32/89/31 31/88/28
f 98/84/84 99/85/85 32/89/31
f 99/85/85 33/90/33 32/89/31
f 99/85/85 100/86/86 34/91/35
f 99/85/85 34/91/35 33/90/33
f 100/86/86 101/23/24 34/91/35
f 101/23/24 35/26/6 34/91/35
# 168 triangles in group

# 168 triangles total

