# Exported from Wings 3D 0.99.02
mtllib table.mtl
o cube1
#15 vertices, 11 faces
v -4.63942992 0.34607456 3.89770572
v -4.55020152 5.47899154 3.85409212
v -3.44149392 5.47899154 3.85409212
v -3.34722992 0.34607456 3.89770572
v -4.50821314 0.34607456 3.15442738
v -4.43782820 5.47899154 3.23172035
v -3.75116965 5.47899154 3.09448428
v -3.57532994 0.34607456 3.18684913
v -3.99582668 5.47899154 4.24297864
v -3.99305986 0.34607456 4.33305010
v -3.99929495 3.05469185 4.11425449
v -3.82899385 2.66548362 3.33751749
v -4.34959918 2.86937088 3.28919207
v -3.55965585 3.48760696 3.75991203
v -4.43835185 3.48760696 3.75991203
vn -0.82391622 -0.46357678 0.32597337
vn -0.92901563 -5.6016158e-2 0.36577610
vn 0.96859039 -6.7711315e-2 0.23926520
vn 0.84337583 -0.49223726 0.21545228
vn -0.52202456 -0.50247224 -0.68921115
vn -0.67865854 -6.1530151e-2 -0.73187200
vn 0.50614120 -6.4315580e-2 -0.86004918
vn 0.49380044 -0.44623523 -0.74634794
vn 1.4697555e-4 -7.0586722e-2 0.99750564
vn -3.8981078e-4 -0.46448045 0.88558329
vn -1.5225577e-4 8.9025721e-3 0.99996036
vn 0.53030283 9.4964798e-3 -0.84775511
vn -0.64339614 8.0833882e-3 -0.76549074
vn 0.96978929 1.3589100e-2 0.24356531
vn -0.93013020 1.0144239e-2 0.36708977
g cube1_default
usemtl default
f 1//1 5//5 8//8 4//4 10//10
f 1//1 10//10 11//11 15//15
f 2//2 15//15 11//11 9//9
f 3//3 9//9 11//11 14//14
f 4//4 14//14 11//11 10//10
f 6//6 13//13 15//15 2//2
f 7//7 12//12 13//13 6//6
f 8//8 12//12 14//14 4//4
f 13//13 12//12 8//8 5//5
f 14//14 12//12 7//7 3//3
f 15//15 13//13 5//5 1//1
o cube1
#15 vertices, 11 faces
v -4.78666742 0.34607456 -2.34569484
v -4.67939194 5.47899154 -2.34277197
v -3.49423762 5.47899154 -1.94345757
v -3.53132199 0.34607456 -1.91994424
v -4.06713893 0.34607456 -3.02994282
v -4.03695586 5.47899154 -2.92985673
v -3.43221096 5.47899154 -2.70859142
v -3.44191397 0.34607456 -2.78495464
v -4.33661090 5.47899154 -1.82684901
v -4.28710099 0.34607456 -1.74438603
v -4.22423626 2.70612535 -1.89041008
v -3.54947543 3.00857914 -2.64368988
v -3.99303493 3.60361845 -2.81713301
v -3.64593065 3.05967782 -1.98085886
v -4.51717658 3.66570460 -2.39716873
vn -0.85157274 -0.51862919 -7.6469748e-2
vn -0.98185702 -7.2753406e-2 -0.17511065
vn 0.71904402 -4.6807314e-2 0.69338645
vn 0.63428934 -0.49528011 0.59361153
vn -0.14154836 -0.46631816 -0.87321901
vn -0.18727840 -5.3499935e-2 -0.98084890
vn 0.84503737 -6.2668454e-2 -0.53102214
vn 0.75372577 -0.49231397 -0.43534403
vn -0.44123553 -5.1809608e-2 0.89589451
vn -0.31055767 -0.46231420 0.83055374
vn -0.39557220 7.2336056e-3 0.91840640
vn 0.85657684 -5.3829575e-4 -0.51601921
vn -0.17395552 5.1074591e-3 -0.98474027
vn 0.72504269 2.1411251e-3 0.68870060
vn -0.99096648 2.3423872e-3 -0.13408932
g cube1_default
usemtl default
f 16//16 20//20 23//23 19//19 25//25
f 16//16 25//25 26//26 30//30
f 17//17 30//30 26//26 24//24
f 18//18 24//24 26//26 29//29
f 19//19 29//29 26//26 25//25
f 21//21 28//28 30//30 17//17
f 22//22 27//27 28//28 21//21
f 23//23 27//27 29//29 19//19
f 28//28 27//27 23//23 20//20
f 29//29 27//27 22//22 18//18
f 30//30 28//28 20//20 16//16
o cube1
#15 vertices, 11 faces
v 4.40986252 0.34607456 3.20032940
v 4.50000651 5.47899154 3.25855854
v 5.16642374 5.47899154 4.27850420
v 5.18657258 0.34607456 4.32345740
v 5.34420327 0.34607456 3.03189756
v 5.20302536 5.47899154 2.94014302
v 5.75572150 5.47899154 3.59391523
v 5.82732896 0.34607456 3.69641065
v 4.59821965 5.47899154 4.04940871
v 4.52433004 0.34607456 3.97365733
v 4.63645326 3.06490652 3.84876105
v 5.50969893 2.66548362 3.66169903
v 5.20317252 2.86937088 3.17277425
v 5.17424200 2.99165163 4.11828767
v 4.57844888 3.14381974 3.30993912
vn -0.68792977 -0.52863233 -0.49729315
vn -0.84798496 -5.5776956e-2 -0.52707727
vn 0.22392040 -7.3249293e-2 0.97185091
vn 0.16660899 -0.47830386 0.86224524
vn 0.34424870 -0.46016279 -0.81837830
vn 0.28193290 -7.9601616e-2 -0.95612626
vn 0.99711187 -7.3595809e-2 1.8750295e-2
vn 0.88456447 -0.46293071 5.6928518e-2
vn -0.80758939 -5.6669044e-2 0.58701619
vn -0.72999493 -0.44783759 0.51628374
vn -0.81270852 4.3148720e-3 0.58265448
vn 0.99896643 1.8115376e-2 4.1688163e-2
vn 0.33660389 2.7299642e-3 -0.94164238
vn 0.20722483 8.9722348e-3 0.97825220
vn -0.83110818 3.5082615e-3 -0.55609972
g cube1_default
usemtl default
f 31//31 35//35 38//38 34//34 40//40
f 31//31 40//40 41//41 45//45
f 32//32 45//45 41//41 39//39
f 33//33 39//39 41//41 44//44
f 34//34 44//44 41//41 40//40
f 36//36 43//43 45//45 32//32
f 37//37 42//42 43//43 36//36
f 38//38 42//42 44//44 34//34
f 43//43 42//42 38//38 35//35
f 44//44 42//42 37//37 33//33
f 45//45 43//43 35//35 31//31
o cube2
#24 vertices, 16 faces
v -4.88169061 5.51671916 3.52834939
v -4.88169061 6.31486168 3.52834939
v 5.36084783 6.31486168 4.45027700
v 5.36084783 5.51671916 4.40945128
v -4.21363711 5.51671916 -3.28847444
v -4.21363711 6.31486168 -3.39187985
v 5.28405064 6.31486168 -3.45961645
v 5.28405064 5.51671916 -3.35485631
v 6.08017815 5.51671916 -2.42384436
v 6.08017815 6.31486168 -2.50960426
v 0.72030939 6.15344085 -3.14804070
v 0.72030939 5.35529833 -3.14804070
v -0.26371196 6.15344085 4.28391982
v -0.26371196 5.35529833 4.28391982
v 6.20124377 5.51671916 3.54727259
v 6.20124377 6.31486168 3.57737921
v -4.80925108 6.31486168 0.60273054
v -4.80925108 5.51671916 0.65443325
v -5.06278945 5.51671916 -2.66117644
v -5.06278945 6.31486168 -2.73873050
v -3.92219351 6.23415127 4.53356749
v -3.92219351 5.43600874 4.53356749
v 5.98807319 6.31486168 0.53388748
v 5.98807319 5.51671916 0.56171411
vn -0.82579909 -0.47090415 0.31033070
vn -0.81486528 0.48097652 0.32350604
vn 0.32444528 0.46030608 0.82634955
vn 0.33925114 -0.49713614 0.79860148
vn -0.26776860 -0.52034355 -0.81088998
vn -0.25987516 0.41283377 -0.87294512
vn 0.34404270 0.43453880 -0.83235248
vn 0.34520083 -0.53652535 -0.77004996
vn 0.82257883 -0.49410906 -0.28146102
vn 0.84182952 0.44938715 -0.29895526
vn -5.2787139e-3 0.68478709 -0.72872408
vn -7.0963126e-3 -0.72914207 -0.68432557
vn 1.6373071e-2 0.70200277 0.71198598
vn 1.3980433e-2 -0.71268882 0.70134099
vn 0.82241117 -0.48607909 0.29557907
vn 0.82590460 0.47416343 0.30504201
vn -0.89010830 0.45501232 2.5903819e-2
vn -0.89773044 -0.44010061 1.9786414e-2
vn -0.78045604 -0.51949078 -0.34787597
vn -0.80337638 0.46978865 -0.36590303
vn -0.30244272 0.48428518 0.82097276
vn -0.33106285 -0.48206572 0.81117817
vn 0.89110895 0.45339779 -1.8849036e-2
vn 0.89696933 -0.44176665 -1.6978042e-2
g cube2_default
usemtl default
f 46//46 63//63 64//64 50//50 57//57 59//59 67//67
f 46//46 67//67 66//66 47//47
f 47//47 62//62 63//63 46//46
f 48//48 58//58 59//59 49//49
f 49//49 59//59 57//57 53//53 54//54 69//69 60//60
f 49//49 60//60 61//61 48//48
f 50//50 64//64 65//65 51//51
f 51//51 56//56 57//57 50//50
f 52//52 55//55 54//54 53//53
f 53//53 57//57 56//56 52//52
f 55//55 68//68 69//69 54//54
f 58//58 66//66 67//67 59//59
f 61//61 68//68 55//55 52//52 56//56 58//58 48//48
f 65//65 64//64 63//63 62//62
f 66//66 58//58 56//56 51//51 65//65 62//62 47//47
f 69//69 68//68 61//61 60//60
o cube1
#15 vertices, 11 faces
v 4.34435316 0.34607456 -2.01847759
v 4.44240634 5.47899154 -2.06209119
v 5.66076634 5.47899154 -2.06209119
v 5.76435316 0.34607456 -2.01847759
v 4.53919988 0.34607456 -2.86993231
v 4.60958482 5.47899154 -2.79263934
v 5.40999861 5.47899154 -2.92987541
v 5.47208308 0.34607456 -2.83751056
v 5.05158634 5.47899154 -1.78138105
v 5.05435316 0.34607456 -1.69130959
v 5.04811807 3.90464908 -1.91010520
v 5.33217441 2.66548362 -2.68684220
v 4.69781384 2.86937088 -2.73516762
v 5.53091807 3.48760696 -2.15627128
v 4.56531807 3.48760696 -2.15627128
vn -0.79407508 -0.48980812 0.35990661
vn -0.88935802 -7.2865625e-2 0.45136783
vn 0.90557271 -8.0819538e-2 0.41642078
vn 0.80504042 -0.51080332 0.30164529
vn -0.51174894 -0.49454926 -0.70251979
vn -0.65660247 -6.1785776e-2 -0.75170187
vn 0.57086816 -6.7657593e-2 -0.81824935
vn 0.51698730 -0.46117249 -0.72114081
vn -3.0017579e-4 -7.8309016e-2 0.99692909
vn 2.1408046e-4 -0.44070038 0.89765424
vn -3.3997740e-5 -4.8404182e-3 0.99998828
vn 0.57763168 5.3023196e-3 -0.81628030
vn -0.62448481 7.8373411e-3 -0.78099763
vn 0.92290313 1.7958195e-3 0.38502804
vn -0.90147228 4.0483638e-3 0.43281791
g cube1_default
usemtl default
f 70//70 74//74 77//77 73//73 79//79
f 70//70 79//79 80//80 84//84
f 71//71 84//84 80//80 78//78
f 72//72 78//78 80//80 83//83
f 73//73 83//83 80//80 79//79
f 75//75 82//82 84//84 71//71
f 76//76 81//81 82//82 75//75
f 77//77 81//81 83//83 73//73
f 82//82 81//81 77//77 74//74
f 83//83 81//81 76//76 72//72
f 84//84 82//82 74//74 70//70
