# Exported from Wings 3D 0.99.02
mtllib longswordrazaak.mtl
o objcube2_d
#17 vertices, 10 faces
v -0.37475496 17.72573680 -1.2895850e-2
v 0.37869724 17.72573680 -1.2895850e-2
v -0.27042441 3.55817676 -1.2895850e-2
v 0.27436678 3.55817676 -1.2895850e-2
v 0.62831603 4.09255409 -1.2895850e-2
v -0.62437366 4.09255409 -1.2895850e-2
v 1.9712041e-3 4.09255409 0.15347552
v 1.9712041e-3 4.09255409 -0.17926724
v 1.9712031e-3 19.36449532 -1.2895850e-2
v 1.9712028e-3 4.74252892 -0.13767439
v 1.9712028e-3 4.74252892 0.11188268
v -0.45325138 4.46397591 -1.2895850e-2
v 0.45719371 4.46397591 -1.2895850e-2
v -0.28132686 18.49704607 -1.2895850e-2
v 0.28526919 18.49704607 -1.2895850e-2
v 1.9712105e-3 12.46304421 -7.5285120e-2
v 1.9712105e-3 12.46304421 4.9493415e-2
vn -0.99955825 2.9720442e-2 8.3390016e-9
vn 0.99955825 2.9720436e-2 8.3390032e-9
vn 0.0000000e+0 -1.00000000 1.2759830e-8
vn 0.0000000e+0 -1.00000000 1.2759830e-8
vn 0.91132834 -0.41168028 2.4808378e-8
vn -0.91132830 -0.41168037 2.4808376e-8
vn 1.0594439e-8 -1.4012118e-2 0.99990183
vn 1.0594440e-8 -1.4012118e-2 -0.99990183
vn 4.2235128e-6 1.00000000 2.8058140e-7
vn 1.8307123e-8 4.6564310e-2 -0.99891529
vn 1.8307121e-8 4.6564303e-2 0.99891529
vn -0.97956802 0.20111314 1.3881938e-8
vn 0.97956802 0.20111314 1.3881939e-8
vn -0.99955825 2.9720442e-2 8.3390016e-9
vn 0.99955825 2.9720436e-2 8.3390032e-9
vn 2.0572719e-8 4.8709973e-3 -0.99998814
vn 2.0572717e-8 4.8709968e-3 0.99998814
g objcube2_d_default
usemtl default
f 1//1 12//12 11//11 17//17 9//9 14//14
f 2//2 13//13 10//10 16//16 9//9 15//15
f 3//3 6//6 8//8 5//5 4//4
f 4//4 5//5 7//7 6//6 3//3
f 5//5 13//13 11//11 7//7
f 6//6 12//12 10//10 8//8
f 7//7 11//11 12//12 6//6
f 8//8 10//10 13//13 5//5
f 14//14 9//9 16//16 10//10 12//12 1//1
f 15//15 9//9 17//17 11//11 13//13 2//2
o objcylinde
#125 vertices, 113 faces
v 0.21610886 2.98937631 -0.12437727
v 0.21610886 2.98937631 0.12222740
v 0.42140814 0.32484511 -0.23262588
v 0.42140814 0.32484511 0.23047601
v 0.34075260 2.99006128 -1.7499937e-2
v 1.79088151 3.25248575 -9.1232480e-3
v 0.46038070 3.54886937 -0.14904694
v 0.46038070 3.54886937 0.14689706
v 1.69393194 3.59544373 5.0394058e-2
v 1.69393194 3.59544373 -5.7287306e-2
v 1.76388872 3.38887167 -0.10344481
v 1.76388872 3.38887167 9.6551567e-2
v 0.34597829 3.22046900 0.19720754
v 0.34597829 3.22046900 -0.19935742
v 0.21610886 0.81428921 0.12222740
v 0.21610886 0.81428921 -0.12437727
v 0.18380563 0.71664715 -0.10076938
v 0.18380563 0.71664715 9.8619506e-2
v 2.5429619e-3 0.71664715 -0.20046382
v 0.31144245 -0.32351433 -0.19047145
v 0.31144245 -0.32351433 0.18832155
v 0.28458542 3.76850271 0.16820504
v 0.28458542 3.76850271 -0.17035490
v 0.42871327 -3.0744797e-2 0.24770368
v 0.42871327 -3.0744797e-2 -0.24985357
v -0.21684612 2.98937631 -0.12437727
v -0.21684612 2.98937631 0.12222740
v -3.6863249e-4 2.98937631 0.24552971
v -3.6863249e-4 2.98937631 -0.24767959
v -0.42214543 0.32484511 -0.23262588
v -0.42214543 0.32484511 0.23047601
v -3.6863147e-4 0.32484511 0.46202696
v -3.6863147e-4 0.32484511 -0.46417681
v -0.34148988 2.99006128 -1.7499937e-2
v -1.79161870 3.25248575 -9.1232480e-3
v -0.46111798 3.54886937 -0.14904694
v -3.6863238e-4 3.81939030 -0.19166288
v -3.6863238e-4 3.81939030 0.18951300
v -0.46111798 3.54886937 0.14689706
v -1.69466913 3.59544373 5.0394058e-2
v -1.69466913 3.59544373 -5.7287306e-2
v -1.76462591 3.38887167 -0.10344481
v -1.76462591 3.38887167 9.6551567e-2
v -0.34671557 3.22046900 0.19720754
v -3.6863249e-4 3.22046900 0.25431290
v -3.6863249e-4 3.22046900 -0.25646275
v -0.34671557 3.22046900 -0.19935742
v -3.6863249e-4 0.81428921 -0.24767959
v -3.6863249e-4 0.81428921 0.24552971
v -0.21684612 0.81428921 0.12222740
v -0.21684612 0.81428921 -0.12437727
v -0.18454289 0.71664715 -0.10076938
v -0.18454289 0.71664715 9.8619506e-2
v -3.6863249e-4 0.71664715 0.19831395
v -3.2802266e-3 0.71664715 -0.20046382
v -0.31217972 -0.32351433 -0.19047145
v -0.31217972 -0.32351433 0.18832155
v -3.6863147e-4 -0.32351433 0.37771812
v -3.6863147e-4 -0.32351433 -0.37986788
v -0.28532270 3.76850271 0.16820504
v -0.28532270 3.76850271 -0.17035490
v -3.6863147e-4 -3.0744797e-2 -0.49863216
v -3.6863147e-4 -3.0744797e-2 0.49648235
v -0.42945056 -3.0744797e-2 0.24770368
v -0.42945056 -3.0744797e-2 -0.24985357
v -1.77735364 3.84365082 -0.22241004
v -1.77735364 3.84365082 0.21233881
v -1.82196772 3.45923805 0.42971325
v -1.86658180 3.07482529 0.21233881
v -1.86658180 3.07482529 -0.22241004
v -1.82196772 3.45923805 -0.43978444
v -1.69221199 3.55292559 -8.0532052e-2
v -1.69221199 3.55292559 7.0460826e-2
v -1.70728695 3.42303371 0.14595726
v -1.72236192 3.29314184 7.0460826e-2
v -1.72236192 3.29314184 -8.0532052e-2
v -1.70728695 3.42303371 -0.15602849
v -1.93207383 3.75074053 -0.15990524
v -1.93207383 3.75074053 0.14983401
v -1.97722149 3.48016477 0.29318044
v -2.01344275 3.22899556 0.13826643
v -2.01344275 3.22899556 -0.14833766
v -1.97722149 3.48016477 -0.30325162
v -2.13056874 3.59828520 -5.9524160e-2
v -2.13056874 3.59828520 4.9452938e-2
v -2.14645314 3.50308704 9.9887215e-2
v -2.15919709 3.41471696 4.5383058e-2
v -2.15919709 3.41471696 -5.5454284e-2
v -2.14645314 3.50308704 -0.10995845
v -2.01988840 3.48658347 -0.21421607
v -2.04529524 3.31040359 -0.10555330
v -2.04529524 3.31040359 9.5482081e-2
v -2.01988840 3.48658347 0.20414485
v -1.98821986 3.67637587 0.10359603
v -1.98821986 3.67637587 -0.11366726
v 1.77661645 3.84365082 -0.22241004
v 1.77661645 3.84365082 0.21233881
v 1.82123053 3.45923805 0.42971325
v 1.86584461 3.07482529 0.21233881
v 1.86584461 3.07482529 -0.22241004
v 1.82123053 3.45923805 -0.43978444
v 1.69147480 3.55292559 -8.0532052e-2
v 1.69147480 3.55292559 7.0460826e-2
v 1.70654976 3.42303371 0.14595726
v 1.72162473 3.29314184 7.0460826e-2
v 1.72162473 3.29314184 -8.0532052e-2
v 1.70654976 3.42303371 -0.15602849
v 1.93133664 3.75074053 -0.15990524
v 1.93133664 3.75074053 0.14983401
v 1.97648430 3.48016477 0.29318044
v 2.01270533 3.22899556 0.13826643
v 2.01270533 3.22899556 -0.14833766
v 1.97648430 3.48016477 -0.30325162
v 2.12983131 3.59828520 -5.9524160e-2
v 2.12983131 3.59828520 4.9452938e-2
v 2.14571571 3.50308704 9.9887215e-2
v 2.15845966 3.41471696 4.5383058e-2
v 2.15845966 3.41471696 -5.5454284e-2
v 2.14571571 3.50308704 -0.10995845
v 2.01915097 3.48658347 -0.21421607
v 2.04455781 3.31040359 -0.10555330
v 2.04455781 3.31040359 9.5482081e-2
v 2.01915097 3.48658347 0.20414485
v 1.98748267 3.67637587 0.10359603
v 1.98748267 3.67637587 -0.11366726
vn 0.61540294 -0.46365696 -0.63741779
vn 0.63495091 -0.46739636 0.61512436
vn 0.81404654 0.32828067 -0.47912424
vn 0.81374376 0.32870790 0.47934561
vn 0.39797262 -0.91667466 -3.6405579e-2
vn 0.78091587 -0.62393175 -2.9657670e-2
vn 0.32744025 0.65290770 -0.68300396
vn 0.32856929 0.65260469 0.68275130
vn 0.48723328 0.72368286 0.48876052
vn 0.48581828 0.72435123 -0.48917879
vn 0.53564478 -6.4303513e-2 -0.84199152
vn 0.54677328 -9.2267890e-2 0.83218124
vn 0.27591561 -0.25936254 0.92552777
vn 0.25332201 -0.23947544 -0.93727236
vn 0.84742336 -0.19994086 0.49183056
vn 0.84794127 -0.19806876 -0.49169541
vn 0.85729459 0.11124023 -0.50266450
vn 0.85702377 0.10988141 0.50342461
vn 0.48386506 7.9283680e-2 -0.87154386
vn 0.59603274 -0.72614095 -0.34273064
vn 0.59603280 -0.72614092 0.34273059
vn 0.48996597 0.75355668 0.43827581
vn 0.48996596 0.75355668 -0.43827581
vn 0.85066229 -0.18353376 0.49263477
vn 0.85066225 -0.18353378 -0.49263483
vn -0.61540293 -0.46365697 -0.63741780
vn -0.63495090 -0.46739637 0.61512437
vn 1.9529218e-9 -0.13832773 0.99038651
vn 1.9529219e-9 -0.13832772 -0.99038651
vn -0.81404653 0.32828069 -0.47912425
vn -0.81374375 0.32870791 0.47934562
vn 8.2842841e-9 0.33372008 0.94267222
vn 8.3572496e-9 0.33319292 -0.94285867
vn -0.39797260 -0.91667467 -3.6405578e-2
vn -0.78091587 -0.62393175 -2.9657670e-2
vn -0.32744025 0.65290770 -0.68300396
vn 4.9321258e-9 0.73544690 -0.67758236
vn 4.9321262e-9 0.73544691 0.67758236
vn -0.32856929 0.65260469 0.68275130
vn -0.48723328 0.72368286 0.48876052
vn -0.48581828 0.72435123 -0.48917879
vn -0.53564479 -6.4303512e-2 -0.84199152
vn -0.54677328 -9.2267890e-2 0.83218124
vn -0.27591560 -0.25936254 0.92552777
vn 3.3699441e-9 -8.6022942e-2 0.99629316
vn 3.3699438e-9 -8.6022928e-2 -0.99629316
vn -0.25332200 -0.23947545 -0.93727236
vn -1.5017115e-10 -0.21117432 -0.97744842
vn -2.3399181e-10 -0.21455564 0.97671177
vn -0.84742336 -0.19994086 0.49183056
vn -0.84794127 -0.19806876 -0.49169540
vn -0.85729458 0.11124024 -0.50266450
vn -0.85702376 0.10988142 0.50342461
vn 3.5778599e-9 8.7567390e-2 0.99615860
vn -0.48386506 7.9283683e-2 -0.87154386
vn -0.59603272 -0.72614097 -0.34273064
vn -0.59603278 -0.72614094 0.34273059
vn 5.0010682e-9 -0.72111304 0.69281743
vn 5.0010666e-9 -0.72111300 -0.69281746
vn -0.48996596 0.75355668 0.43827581
vn -0.48996596 0.75355668 -0.43827582
vn 8.4039337e-9 -0.16102928 -0.98694963
vn 8.4039356e-9 -0.16102927 0.98694963
vn -0.85066229 -0.18353378 0.49263478
vn -0.85066225 -0.18353380 -0.49263484
vn 0.37964578 0.78519729 -0.48921805
vn 0.37964579 0.78519731 0.48921801
vn 0.26272255 -3.6636499e-2 0.96417562
vn 0.14427961 -0.85967690 0.49003981
vn 0.14427961 -0.85967688 -0.49003985
vn 0.26272253 -3.6636496e-2 -0.96417563
vn 0.98820081 9.0359205e-2 -0.12367041
vn 0.98820081 9.0359207e-2 0.12367040
vn 0.95912303 -0.11671078 0.25780149
vn 0.93030671 -0.34138314 0.13411554
vn 0.93030671 -0.34138314 -0.13411555
vn 0.95912302 -0.11671078 -0.25780151
vn -0.72763871 0.61585281 -0.30210468
vn -0.72763870 0.61585282 0.30210464
vn -0.79354483 0.10141617 0.60000114
vn -0.86511273 -0.40405549 0.29718535
vn -0.86511273 -0.40405547 -0.29718537
vn -0.79354480 0.10141617 -0.60000118
vn -0.76928808 0.57687915 -0.27460205
vn -0.76928809 0.57687915 0.27460204
vn -0.82912348 0.10702663 0.54872538
vn -0.89139139 -0.36117548 0.27381319
vn -0.89139138 -0.36117551 -0.27381319
vn -0.82912347 0.10702661 -0.54872541
vn -0.78281321 9.6479687e-2 -0.61473177
vn -0.85044801 -0.42831685 -0.30542242
vn -0.85044803 -0.42831684 0.30542240
vn -0.78281324 9.6479701e-2 0.61473172
vn -0.71561585 0.62666505 0.30852047
vn -0.71561583 0.62666505 -0.30852050
vn -0.37964578 0.78519729 -0.48921805
vn -0.37964579 0.78519731 0.48921801
vn -0.26272246 -3.6636516e-2 0.96417565
vn -0.14427926 -0.85967695 0.49003984
vn -0.14427926 -0.85967692 -0.49003988
vn -0.26272243 -3.6636513e-2 -0.96417565
vn -0.98820081 9.0359205e-2 -0.12367041
vn -0.98820081 9.0359207e-2 0.12367040
vn -0.95912303 -0.11671078 0.25780149
vn -0.93030671 -0.34138314 0.13411554
vn -0.93030671 -0.34138314 -0.13411555
vn -0.95912302 -0.11671078 -0.25780151
vn 0.72763891 0.61585265 -0.30210451
vn 0.72763891 0.61585267 0.30210448
vn 0.79354526 0.10141606 0.60000059
vn 0.86511300 -0.40405521 0.29718492
vn 0.86511300 -0.40405520 -0.29718495
vn 0.79354523 0.10141605 -0.60000063
vn 0.76928837 0.57687880 -0.27460201
vn 0.76928837 0.57687879 0.27460200
vn 0.82912355 0.10702647 0.54872532
vn 0.89139139 -0.36117548 0.27381319
vn 0.89139138 -0.36117551 -0.27381319
vn 0.82912353 0.10702645 -0.54872534
vn 0.78281363 9.6479471e-2 -0.61473127
vn 0.85044816 -0.42831678 -0.30542211
vn 0.85044817 -0.42831676 0.30542209
vn 0.78281366 9.6479485e-2 0.61473123
vn 0.71561627 0.62666465 0.30852028
vn 0.71561626 0.62666465 -0.30852031
g objcylinde_default
usemtl default
f 18//18 22//22 19//19
f 18//18 31//31 22//22
f 18//18 46//46 63//63 31//31
f 19//19 32//32 33//33 18//18
f 19//19 45//45 66//66 32//32
f 20//20 34//34 35//35 21//21
f 20//20 50//50 36//36 34//34
f 21//21 41//41 42//42 20//20
f 21//21 49//49 80//80 41//41
f 22//22 30//30 19//19
f 22//22 31//31 28//28 23//23
f 23//23 29//29 30//30 22//22
f 24//24 40//40 39//39 25//25
f 25//25 26//26 27//27 24//24
f 25//25 30//30 29//29 26//26
f 25//25 39//39 55//55 62//62 30//30
f 27//27 28//28 31//31 24//24
f 28//28 27//27 26//26 29//29 23//23
f 30//30 62//62 45//45 19//19
f 31//31 63//63 54//54 40//40 24//24
f 32//32 35//35 34//34 33//33
f 32//32 66//66 71//71 35//35
f 33//33 65//65 46//46 18//18
f 34//34 36//36 65//65 33//33
f 35//35 71//71 49//49 21//21
f 37//37 42//42 41//41 38//38
f 37//37 76//76 79//79 42//42
f 38//38 75//75 74//74 73//73 76//76 37//37
f 40//40 54//54 55//55 39//39
f 41//41 80//80 75//75 38//38
f 42//42 79//79 50//50 20//20
f 43//43 64//64 63//63 46//46
f 43//43 68//68 67//67 44//44
f 44//44 51//51 43//43
f 44//44 61//61 51//51
f 44//44 67//67 66//66 45//45
f 45//45 62//62 61//61 44//44
f 46//46 65//65 68//68 43//43
f 47//47 69//69 72//72 50//50
f 47//47 82//82 81//81 48//48
f 48//48 70//70 69//69 47//47
f 48//48 81//81 80//80 49//49
f 49//49 71//71 70//70 48//48
f 50//50 79//79 82//82 47//47
f 51//51 61//61 60//60 52//52
f 51//51 64//64 43//43
f 52//52 59//59 64//64 51//51
f 52//52 60//60 57//57 58//58 59//59
f 53//53 58//58 57//57 56//56
f 53//53 64//64 59//59 58//58
f 53//53 78//78 54//54 63//63 64//64
f 54//54 78//78 77//77 55//55
f 55//55 77//77 56//56 61//61 62//62
f 56//56 77//77 78//78 53//53
f 57//57 60//60 61//61 56//56
f 65//65 72//72 69//69 68//68
f 67//67 70//70 71//71 66//66
f 68//68 69//69 70//70 67//67
f 73//73 82//82 79//79 76//76
f 74//74 81//81 82//82 73//73
f 75//75 80//80 81//81 74//74
f 83//83 89//89 94//94 88//88
f 83//83 95//95 96//96 84//84
f 84//84 90//90 89//89 83//83
f 84//84 96//96 97//97 85//85
f 85//85 91//91 90//90 84//84
f 85//85 97//97 98//98 86//86
f 86//86 92//92 91//91 85//85
f 86//86 98//98 99//99 87//87
f 87//87 93//93 92//92 86//86
f 87//87 99//99 100//100 88//88
f 88//88 94//94 93//93 87//87
f 88//88 100//100 95//95 83//83
f 90//90 91//91 92//92 93//93 94//94 89//89
f 95//95 112//112 111//111 96//96
f 96//96 111//111 110//110 97//97
f 97//97 110//110 109//109 98//98
f 98//98 109//109 108//108 99//99
f 99//99 108//108 107//107 100//100
f 100//100 107//107 112//112 95//95
f 101//101 106//106 105//105 104//104 103//103 102//102
f 101//101 112//112 107//107 106//106
f 102//102 111//111 112//112 101//101
f 103//103 110//110 111//111 102//102
f 104//104 109//109 110//110 103//103
f 105//105 108//108 109//109 104//104
f 106//106 107//107 108//108 105//105
f 113//113 119//119 120//120 114//114
f 113//113 125//125 130//130 118//118
f 114//114 120//120 121//121 115//115
f 114//114 126//126 125//125 113//113
f 115//115 121//121 122//122 116//116
f 115//115 127//127 126//126 114//114
f 116//116 122//122 123//123 117//117
f 116//116 128//128 127//127 115//115
f 117//117 123//123 124//124 118//118
f 117//117 129//129 128//128 116//116
f 118//118 124//124 119//119 113//113
f 118//118 130//130 129//129 117//117
f 119//119 124//124 123//123 122//122 121//121 120//120
f 125//125 142//142 137//137 130//130
f 126//126 141//141 142//142 125//125
f 127//127 140//140 141//141 126//126
f 128//128 139//139 140//140 127//127
f 129//129 138//138 139//139 128//128
f 130//130 137//137 138//138 129//129
f 131//131 142//142 141//141 132//132
f 132//132 133//133 134//134 135//135 136//136 131//131
f 132//132 141//141 140//140 133//133
f 133//133 140//140 139//139 134//134
f 134//134 139//139 138//138 135//135
f 135//135 138//138 137//137 136//136
f 136//136 137//137 142//142 131//131
