/* XPM */
static const char *NoImage_xpm[] = {
/* columns rows colors chars-per-pixel */
"64 64 54 1",
"  c Black",
"- c #0F0F0F",
"j c #E8E8E8",
"7 c #F7F7F7",
"O c #080808",
". c #171717",
"k c #262626",
"h c #F0F0F0",
"2 c #FFFFFF",
"X c #010101",
"q c #101010",
"; c #1F1F1F",
"l c #E9E9E9",
"d c #F8F8F8",
"% c #090909",
"n c #181818",
"3 c #F1F1F1",
": c #020202",
"1 c #111111",
"z c #EAEAEA",
"9 c #F9F9F9",
"# c #0A0A0A",
"f c #191919",
"e c #F2F2F2",
"+ c #030303",
"s c #121212",
"y c #FAFAFA",
"* c #0B0B0B",
"a c #1A1A1A",
"p c #F3F3F3",
"@ c #040404",
"= c #131313",
"g c #ECECEC",
"t c #FBFBFB",
"o c #0C0C0C",
"i c #F4F4F4",
"> c #050505",
"5 c #141414",
"x c #EDEDED",
"r c #FCFCFC",
"$ c #0D0D0D",
"b c #1C1C1C",
"c c #F5F5F5",
", c #060606",
"8 c #151515",
"m c #242424",
"4 c #EEEEEE",
"0 c #FDFDFD",
"< c #0E0E0E",
"u c #F6F6F6",
"& c #070707",
"6 c #161616",
"v c #E0E0E0",
"w c #FEFEFE",
/* pixels */
"                                                                ",
"                                                                ",
"                                                                ",
"                                                                ",
"                                                                ",
"                                                                ",
"                                                                ",
"                                                                ",
"                 . XoO   X+ @ XX#  $@% & o  @  *                ",
"                  %   o+ =  -    ;   o  :  >%,                  ",
"                > <>*>  * $@  >%o  %= 1 - $  >@                 ",
"                X   2322 # 222,   @  O>@  @: ++                 ",
"                  -% %24O   2$ XX> &:O  ,# @5  @                ",
"                @ & 6 7o78XO4#O,  29222- o    X&                ",
"                +@ : :2 0X q2 X %2 X  *7< @  q                  ",
"                   &# 2: 2, wo @2 ++ >& e< > - %                ",
"                : :*  2 :r ,t < 2  @  & 9,  %                   ",
"                #$+ + yO u, 2 , i # -  #2+@  #@                 ",
"                     @p@# 2@pX @2 O: :a w  <   %                ",
"                < >& %2 @ 0 2, 5r  @,   21  +% :                ",
"                     ,9  %:w2+   2 O X&2  *>  :X                ",
"                > &= ui2% sdw @& @292e2 :s  @>&                 ",
"                 1  +O$  - +#@: , O :1 q   O%  >                ",
"                +  q , o: -    > O # @  & O+ O +                ",
"*  @  o    ,  *                                                 ",
"  ,%>  :O+   *                                                  ",
" @>  $ - %&> o >                                                ",
" ++ :@         o                                                ",
"@  5@ #,<@Xo* $                                                 ",
"&X    o    @  $X                                                ",
"  q  @ <,*   f &                                                ",
"% - > <ed2d22t>                                                 ",
"        : 2 X :  % q #, +@  O+ **  O: XX > 1  X  @+%  +   #  $ ,",
"        : 2 X : 22+2r org<O > 2eh2% < ::X22iys2hO O 2292:  *$ > ",
"        : 2 X :  2d <23<*2 ,+7&-+%7X = Ow   $uj%: >2  < 2,+   X#",
"        : 2 X :  d&  y%  7$  +    >2= >2o-@ &X2 @ u-  >5 2  ,#  ",
"        : 2 X : 8d  Ow -%t  oX +X@ e  ki  & @O2> &2 O : <l- >  *",
"        : 2 X :  2 *:eX @i-  722d222O  2O#  O 2 , 22r2420yq< 6X ",
"        : 2 X : or & 0$ ,r+<z$ >:  2 ,Oe > <  2& o0 +  >   @@ O+",
"        : 2 X : +y>:+2X  2  2 * :> t@  2@@  & 2   2>, O  >XX - >",
"% >  , @@ 2&   ++3O  2 # w* 2 >  ,20 . &9< > 27< & w  :  7O  $  ",
" %> 6 8tr92t0t:@d2x%>09 Otc>+i2222 t2 , <v22w<d +# $2d2t2& X @ @",
"< @: >  O+X >$ *  + @O < 1 - *o   $$ %+&O: +  2X  <#  >  O, =:++",
"  *  #>#  &O +b < *8  @ * < %  q    &O % s# & t q   n& %@+ 6  , ",
" #  f+ & OXX   #    q#  ,X # X>  ,O:,@@ *   qe#  : & @+   =  $+%",
", %>  =X% : mX * @X    1 X =  >> :%  >:,X2227@ > $*&O O n+  + + ",
",  %-:   @*  O    % $:$  o  <   +> ,  ::,  * ,+ #   @  ,  >% =  ",
" O%:  +  + : : @>  - +O :  # X+@> :& $   :$ >    : $ o X>&  &  %",
"                                                                ",
"                                                                ",
"                                                                ",
"                                                                ",
"                                                                ",
"                                                                ",
"                                                                ",
"                                                                ",
"                                                                ",
"                                                                ",
"                                                                ",
"                                                                ",
"                                                                ",
"                                                                ",
"                                                                ",
"                                                                "
};
