<?xml version="1.0" encoding="UTF-8" standalone="no"?>
<!-- Created with Inkscape (http://www.inkscape.org/) -->
<svg
   xmlns:dc="http://purl.org/dc/elements/1.1/"
   xmlns:cc="http://creativecommons.org/ns#"
   xmlns:rdf="http://www.w3.org/1999/02/22-rdf-syntax-ns#"
   xmlns:svg="http://www.w3.org/2000/svg"
   xmlns="http://www.w3.org/2000/svg"
   xmlns:sodipodi="http://sodipodi.sourceforge.net/DTD/sodipodi-0.dtd"
   xmlns:inkscape="http://www.inkscape.org/namespaces/inkscape"
   width="64"
   height="64"
   id="svg2"
   sodipodi:version="0.32"
   inkscape:version="0.46+devel"
   version="1.0"
   sodipodi:docname="coin.svg"
   inkscape:output_extension="org.inkscape.output.svg.inkscape"
   inkscape:export-filename="/home/kevin/PlatinumArtsSandboxbeta/svn/trunk/data/hirato/coin.png"
   inkscape:export-xdpi="180"
   inkscape:export-ydpi="180">
  <defs
     id="defs4">
    <inkscape:perspective
       sodipodi:type="inkscape:persp3d"
       inkscape:vp_x="0 : 526.18109 : 1"
       inkscape:vp_y="0 : 1000 : 0"
       inkscape:vp_z="744.09448 : 526.18109 : 1"
       inkscape:persp3d-origin="372.04724 : 350.78739 : 1"
       id="perspective10" />
    <inkscape:perspective
       id="perspective4938"
       inkscape:persp3d-origin="0.5 : 0.33333333 : 1"
       inkscape:vp_z="1 : 0.5 : 1"
       inkscape:vp_y="0 : 1000 : 0"
       inkscape:vp_x="0 : 0.5 : 1"
       sodipodi:type="inkscape:persp3d" />
    <inkscape:perspective
       id="perspective5038"
       inkscape:persp3d-origin="0.5 : 0.33333333 : 1"
       inkscape:vp_z="1 : 0.5 : 1"
       inkscape:vp_y="0 : 1000 : 0"
       inkscape:vp_x="0 : 0.5 : 1"
       sodipodi:type="inkscape:persp3d" />
  </defs>
  <sodipodi:namedview
     id="base"
     pagecolor="#ffffff"
     bordercolor="#666666"
     borderopacity="1.0"
     gridtolerance="10000"
     guidetolerance="10"
     objecttolerance="10"
     inkscape:pageopacity="0.0"
     inkscape:pageshadow="2"
     inkscape:zoom="8"
     inkscape:cx="20.316203"
     inkscape:cy="32.462202"
     inkscape:document-units="px"
     inkscape:current-layer="layer1"
     showgrid="false"
     inkscape:window-width="1227"
     inkscape:window-height="941"
     inkscape:window-x="111"
     inkscape:window-y="218" />
  <metadata
     id="metadata7">
    <rdf:RDF>
      <cc:Work
         rdf:about="">
        <dc:format>image/svg+xml</dc:format>
        <dc:type
           rdf:resource="http://purl.org/dc/dcmitype/StillImage" />
        <dc:title></dc:title>
      </cc:Work>
    </rdf:RDF>
  </metadata>
  <g
     inkscape:label="Layer 1"
     inkscape:groupmode="layer"
     id="layer1">
    <path
       sodipodi:type="arc"
       style="fill:#b3b3b3;fill-opacity:1;fill-rule:nonzero;stroke:none"
       id="path2694-2"
       sodipodi:cx="32"
       sodipodi:cy="32"
       sodipodi:rx="32"
       sodipodi:ry="32"
       d="M 64,32 A 32,32 0 1 1 0,32 32,32 0 1 1 64,32 z"
       transform="matrix(0.78125,0,0,0.78125,7,7)" />
    <path
       style="fill:#000000"
       d="m 14.125,50.089719 c 0,-0.580562 0.82373,-3.465037 1.065835,-3.732255 0.156674,-0.172927 0.251658,0.406075 0.211076,1.28667 -0.04058,0.880598 -0.189802,1.60216 -0.331598,1.603473 -0.141797,0.0014 -0.257813,0.234424 -0.257813,0.518018 0,0.283594 -0.154687,0.515625 -0.34375,0.515625 -0.189062,0 -0.34375,-0.08619 -0.34375,-0.191531 z m 2.067764,-0.06628 c 0.01538,-0.753496 0.67195,-1.253577 0.676972,-0.515625 0.0029,0.425391 -0.149424,0.773438 -0.338486,0.773438 -0.189062,0 -0.341381,-0.116016 -0.338486,-0.257813 z m 1.853403,-1.763791 c 0.271722,-2.401706 -1.974324,-3.427143 -3.783605,-1.727409 -0.966619,0.908091 -1.552607,0.61786 -0.685978,-0.339752 0.420851,-0.465036 0.478556,-0.726337 0.19861,-0.899353 -0.217025,-0.134128 -0.709827,-0.961596 -1.095116,-1.838815 -0.385289,-0.877216 -0.772417,-1.40062 -0.860286,-1.163113 -0.08787,0.237507 -0.301237,0.344393 -0.474152,0.237524 -0.172914,-0.106865 -0.31439,-0.04314 -0.31439,0.141622 0,0.184755 -0.10736,0.619276 -0.238578,0.965597 -0.23045,0.608225 -0.217147,0.608427 0.390401,0.006 0.970273,-0.962067 1.476276,-0.209959 0.910812,1.353804 -0.356733,0.986528 -0.361773,1.300042 -0.02425,1.50864 0.499369,0.308625 -0.577758,2.028977 -1.281827,2.047292 -1.046109,0.02719 -0.383277,-6.462218 0.706145,-6.913469 0.987572,-0.409066 0.987572,-0.409066 0.743177,-4.320487 -0.233369,-3.734947 -0.193799,-4.097169 0.877049,-8.02843 1.012727,-3.717892 1.068455,-4.157928 0.574846,-4.539099 -1.912737,-1.477035 -2.198915,-8.286943 -0.37762,-8.985839 0.969954,-0.372207 4.12549,-0.206794 5.827663,0.305485 1.685829,0.50736 1.685829,0.50736 3.586937,-1.37391 1.901107,-1.881271 1.901107,-1.881271 6.532866,-2.084761 5.676128,-0.249373 10.229014,0.213731 10.981137,1.116963 0.299178,0.359286 0.858826,0.5839 1.299058,0.521377 0.520223,-0.07388 0.773438,0.06679 0.773438,0.429688 0,0.296743 -0.189062,0.539533 -0.420139,0.539533 -0.239862,0 -0.12079,0.299348 0.277501,0.69764 0.669565,0.669564 0.752142,0.674868 2.051931,0.131781 5.225372,-2.1833 8.415603,1.193443 6.317384,6.686723 -1.098337,2.875518 -1.098337,2.875518 0.19582,7.046875 1.294161,4.171356 1.294161,4.171356 1.078622,8.995249 -0.215534,4.823891 -0.215534,4.823891 0.780667,5.199915 0.989147,0.373361 0.996425,0.397008 1.028246,3.340171 0.03808,3.521657 -0.788645,4.360304 -1.204916,1.222296 -0.245971,-1.854201 -1.20834,-2.904323 -2.439776,-2.662237 -0.665603,0.130848 -0.81004,1.623713 -0.334638,3.458774 0.187526,0.723859 0.122568,0.945313 -0.277279,0.945313 -0.331031,0 -0.522173,-0.322004 -0.522173,-0.879663 0,-0.498905 -0.148789,-0.787703 -0.34375,-0.667212 -0.189062,0.116847 -0.34375,0.06128 -0.34375,-0.123475 0,-0.184755 -0.09194,-0.619276 -0.204301,-0.965597 -0.169912,-0.52369 -0.141869,-0.542885 0.166609,-0.114053 0.329701,0.458332 0.370913,0.458332 0.370913,0 0,-0.745676 -0.550323,-1.51427 -0.797672,-1.114049 -0.113654,0.183892 -0.558381,0.266929 -0.988281,0.184525 -0.746412,-0.143072 -0.778632,-0.05965 -0.714801,1.850788 0.06684,2.000611 0.06684,2.000611 -0.248438,0.453736 -0.173405,-0.850781 -0.399788,-1.894922 -0.503078,-2.320313 -0.157957,-0.650533 -0.04708,-0.773437 0.697781,-0.773437 0.48707,0 1.6115,-0.187388 2.498736,-0.416415 2.171964,-0.560663 0.937815,-0.860307 -3.780617,-0.917916 -1.832203,-0.02238 -3.403285,-0.156685 -3.491296,-0.298481 -0.08801,-0.141797 2.048669,-0.208055 4.748176,-0.147239 4.908197,0.110578 4.908197,0.110578 5.061327,-4.979405 0.15313,-5.089982 0.15313,-5.089982 -1.159087,-9.342626 C 49.090497,27.371464 48.5,25.31315 48.5,25.136388 c 0,-0.176761 -0.319993,-0.662964 -0.711098,-1.080449 -0.391102,-0.417485 -0.793623,-1.166771 -0.894483,-1.66508 -0.100863,-0.498308 -0.567644,-1.111663 -1.037289,-1.36301 -0.469645,-0.251347 -1.459315,-1.217362 -2.199266,-2.1467 -0.73995,-0.929338 -1.345364,-1.568181 -1.345364,-1.419651 0,0.148531 -0.337511,-0.02462 -0.750023,-0.384783 -0.68317,-0.596471 0.490883,1.169417 2.489875,3.745009 1.851854,2.386016 0.172926,0.975781 -1.94694,-1.635352 -2.869344,-3.534299 -2.692262,-3.473942 -9.861876,-3.361359 -5.383443,0.08454 -5.858264,0.145037 -7.051922,0.89856 -1.738006,1.097156 -2.666203,2.17177 -1.228007,1.421718 1.407661,-0.734126 11.479903,-0.496329 15.870119,0.374681 1.033566,0.205057 3.974976,4.694802 4.69229,7.162273 0.837912,2.882319 0.638983,2.965363 -0.651742,0.272074 -1.910281,-3.986088 -3.755653,-6.482157 -4.972215,-6.72547 -2.533372,-0.506674 -14.100683,-0.298082 -14.663186,0.26442 -0.299364,0.299365 -0.710416,0.441634 -0.913448,0.316153 -0.22364,-0.138217 -0.2688,-0.06578 -0.114569,0.183773 0.317905,0.514382 -0.442191,1.484478 -0.927917,1.184283 -0.208912,-0.129115 -0.25495,-0.0546 -0.110588,0.178979 0.13603,0.2201 -0.0721,0.806267 -0.462512,1.302595 C 21.319427,23.155379 21,23.781765 21,24.05102 c 0,0.269255 -0.145415,0.399683 -0.323143,0.289841 -0.177729,-0.109843 -0.525761,0.01719 -0.773405,0.282294 -0.295838,0.316694 -0.694735,0.389058 -1.16308,0.210994 -2.346416,-0.892106 -3.39488,0.186323 -4.594643,4.725956 -1.309306,4.954119 -1.373835,4.739243 1.224634,4.07789 8.214084,-2.090619 10.024225,-2.408725 10.667694,-1.874693 0.795757,0.66042 2.936782,0.2059 3.267152,-0.693586 0.255748,-0.696318 0.22556,-0.757878 -0.1989,-0.405606 -0.310566,0.257746 -1.454117,0.38819 -3.014296,0.343838 -1.876425,-0.05334 -3.28635,0.158468 -5.560155,0.835294 -4.865389,1.448242 -6.010235,1.121255 -3.875517,-1.106911 0.519577,-0.542321 1.301865,-1.86486 1.738418,-2.938975 0.793733,-1.952936 0.793733,-1.952936 1.062261,-0.476709 0.147691,0.811926 0.239124,1.669587 0.203185,1.905915 -0.124628,0.819542 0.306184,0.423307 0.907402,-0.834572 0.332348,-0.695342 0.812648,-1.33199 1.067336,-1.414772 0.365723,-0.118873 0.383593,-0.002 0.08501,0.555898 -0.262704,0.490867 -0.267796,0.774557 -0.01669,0.929751 0.243754,0.150648 0.216964,0.397341 -0.08231,0.757946 -0.389169,0.46892 -0.338426,0.496837 0.412996,0.227209 0.471174,-0.169068 1.591446,-0.291743 2.489492,-0.272609 0.898047,0.01913 1.632813,-0.09688 1.632813,-0.257813 0,-0.16093 0.522466,-0.2926 1.161035,-0.2926 1.438652,0 1.838101,-0.491008 1.759727,-2.163084 -0.04836,-1.031657 0.05298,-1.278459 0.485628,-1.18271 0.300704,0.06655 0.508063,0.305172 0.460797,0.530272 -0.04727,0.2251 0.04521,0.409272 0.205501,0.409272 0.160291,0 0.304574,0.461999 0.320629,1.026664 0.04559,1.603436 0.268495,1.719124 3.447283,1.789135 2.987525,0.0658 2.987525,0.0658 -0.2781,0.277951 -3.265625,0.212152 -3.265625,0.212152 0.429687,0.277951 2.190509,0.039 3.695313,0.205781 3.695313,0.409549 0,0.192824 0.951709,0.34375 2.167628,0.34375 2.107111,0 5.883853,0.992325 7.205338,1.893175 0.490648,0.334474 0.09437,0.385619 -2.0625,0.266196 -1.468413,-0.0813 -4.023357,-0.125312 -5.677654,-0.09779 -2.526434,0.04202 -3.007812,-0.03642 -3.007812,-0.490148 0,-0.297098 -0.154688,-0.540179 -0.34375,-0.540179 -0.533121,0 -0.406555,0.624695 0.262023,1.293273 0.440351,0.440351 1.26171,0.630615 3.007812,0.696744 1.321122,0.05003 2.827431,0.176446 3.347352,0.280915 1.607849,0.323068 1.041017,0.731094 -0.773437,0.556748 -1.143669,-0.109892 -1.71875,-0.0355 -1.71875,0.222335 0,0.213117 -0.323857,0.387485 -0.719682,0.387485 -0.430586,0 -0.791901,0.276168 -0.899467,0.6875 -0.0995,0.380502 -0.46888,0.6875 -0.827193,0.6875 -1.11914,0 -0.711802,0.942657 0.506065,1.17113 1.251312,0.234748 1.744552,2.232697 0.565277,2.289747 -0.351841,0.01702 -0.297247,0.126181 0.171875,0.34366 0.503009,0.233188 0.36464,0.261238 -0.515625,0.104528 -1.550257,-0.275985 -1.707152,-0.559165 -1.713486,-3.092659 -0.0059,-2.361103 -0.318228,-4.313507 -0.656578,-4.104395 -0.123122,0.07609 -0.127339,1.504442 -0.0094,3.174108 0.394812,5.587966 0.18465,6.121462 -2.433066,6.176383 -2.232134,0.04683 -2.232574,0.04665 -0.438128,-0.180623 0.987935,-0.125122 1.969239,-0.40049 2.180674,-0.611927 0.521476,-0.521474 0.228126,-1.689011 -0.387961,-1.54409 -0.272366,0.06407 -1.384663,0.273955 -2.471773,0.466416 -1.754829,0.310675 -2.915928,1.296213 -1.546875,1.312985 0.286459,0.0035 0.257813,0.116339 -0.08594,0.338487 -0.380834,0.246115 -0.396881,0.334599 -0.06138,0.338487 0.744348,0.0086 -0.371293,0.947076 -1.343784,1.13036 -0.456064,0.08595 1.413762,0.19801 4.155168,0.24902 3.762903,0.07002 4.563178,0.155299 3.265625,0.348012 -0.945313,0.140401 -3.110938,0.179853 -4.8125,0.08768 -1.701563,-0.09218 -3.673828,-0.153918 -4.382813,-0.137201 -1.460908,0.03444 -1.778635,-0.450887 -0.371424,-0.567353 1.198479,-0.09919 1.27881,-0.212667 0.793059,-1.120298 -0.517467,-0.966897 -2.961601,-0.793117 -6.866947,0.488252 -2.578125,0.845897 -2.578125,0.845897 0.859375,0.919776 4.559944,0.098 1.795893,0.591686 -3.609375,0.644668 -3.138912,0.03077 -4.705008,0.678752 -1.71875,0.711143 0.472656,0.0051 2.096875,0.319939 3.609375,0.699576 2.804445,0.703914 16.103286,0.991173 22.171875,0.478913 2.656483,-0.224239 2.182379,0.333145 -0.601563,0.707231 C 40.25,47.252015 40.25,47.252015 40.25,48.795277 c 0,1.90378 -0.80516,1.902502 -0.966063,-0.0014 -0.106688,-1.262652 -0.106688,-1.262652 -2.921875,-1.264048 -1.548353,-7.66e-4 -4.787453,-0.10198 -7.198,-0.224922 -4.382812,-0.223527 -4.382812,-0.223527 -4.382812,1.376396 0,1.183799 -0.132398,1.599922 -0.509049,1.599922 -0.402939,0 -0.466339,-0.311606 -0.30415,-1.4949 0.230476,-1.681505 0.164742,-1.739973 -2.386206,-2.122512 -1.568551,-0.235221 -1.568551,-0.235221 -1.792714,1.089533 -0.376529,2.225204 -0.527748,2.527879 -1.262946,2.527879 -0.661401,0 -0.693461,-0.135022 -0.480018,-2.021604 z M 51.84796,45.360452 c -0.234348,-0.504674 -0.542101,-0.918796 -0.683898,-0.920271 -0.386258,-0.004 -0.316758,0.275296 0.304377,1.223266 0.711425,1.085772 0.939751,0.903485 0.379521,-0.302995 z M 13.65531,42.886373 c -0.222171,-0.578968 1.482433,-0.35121 1.87854,0.251003 0.265452,0.403569 5.678088,-1.330282 6.955922,-2.228218 0.800463,-0.562489 1.321412,-0.649169 2.921875,-0.486172 1.250334,0.127339 1.701565,0.09018 1.260228,-0.103775 -1.037831,-0.456102 -4.07394,-0.394296 -7.90625,0.160947 -1.890625,0.273923 -3.549687,0.502946 -3.686804,0.508942 -0.137118,0.006 -0.104602,-0.369698 0.07226,-0.834872 0.300702,-0.790907 0.270858,-0.822671 -0.460051,-0.489646 -1.031521,0.469993 -1.920101,3.741668 -1.016229,3.741668 0.099,0 0.09023,-0.233942 -0.01949,-0.519877 z m 10.352502,-3.386022 c 1.937891,0.02597 3.523438,-0.09004 3.523438,-0.257812 0,-0.167771 -0.319545,-0.305039 -0.710098,-0.305039 -0.390555,0 -1.027972,-0.17012 -1.416484,-0.378045 -0.513643,-0.274894 -0.642632,-0.274894 -0.472739,0 0.128505,0.207925 0.07896,0.378045 -0.110105,0.378045 -0.189062,0 -0.41967,-0.122842 -0.512463,-0.272983 -0.197576,-0.319686 -3.831128,-0.261089 -6.661167,0.107422 -1.086976,0.14154 -1.765456,0.332762 -1.507735,0.424939 0.395611,0.141495 0.395611,0.215475 0,0.475053 -0.279562,0.183433 0.502072,0.201314 1.937666,0.04433 1.323437,-0.144723 3.991797,-0.24188 5.929687,-0.215906 z m 9.834835,-0.4377 C 35.687199,38.809827 36.316626,36.338433 34.75,35.5 c -0.945719,-0.506133 -0.881556,-1.136208 0.08594,-0.843904 0.490544,0.148206 0.647708,0.115009 0.429688,-0.09076 C 34.84016,34.163773 32.341043,33.4375 31.384731,33.4375 c -0.646457,0 -0.717036,0.239443 -0.819493,2.780203 -0.13954,3.46035 -0.285848,3.333347 3.277409,2.844948 z M 14.8125,37.390625 c 0.472656,-0.270195 0.660573,-0.496745 0.417593,-0.503444 -0.346709,-0.0096 -0.356148,-0.178628 -0.04386,-0.785619 0.328391,-0.638291 0.318492,-0.698356 -0.05666,-0.34375 -0.250017,0.236329 -0.714981,0.429688 -1.033254,0.429688 -0.34428,0 -0.645219,0.348095 -0.742956,0.859375 -0.186822,0.977296 0.193942,1.066999 1.459133,0.34375 z m 12.943052,0.01261 c -0.415713,-0.314959 -1.306221,-0.446351 -2.578125,-0.380395 -4.033644,0.20917 -4.246817,0.33534 -0.911802,0.539665 1.890625,0.115832 3.592188,0.235642 3.78125,0.266245 0.189062,0.0306 0.05797,-0.160879 -0.291323,-0.425514 z m -7.614927,-1.03805 c 1.925829,-0.364565 2.131724,-0.456816 1.03125,-0.462052 -0.75625,-0.0036 -1.99375,0.197381 -2.75,0.446621 -1.761414,0.580516 -1.288754,0.58476 1.71875,0.01543 z M 29.9375,35.193027 c 0,-0.958086 -0.17088,-1.403277 -0.601563,-1.56724 -0.482331,-0.183627 -0.516397,-0.143224 -0.171875,0.203847 0.236329,0.238076 0.429688,0.943335 0.429688,1.567241 0,0.623906 0.07734,1.134375 0.171875,1.134375 0.09453,0 0.171875,-0.6022 0.171875,-1.338223 z m -11.859375,0.274121 c 0.884047,-0.448147 1.068154,-0.629766 0.515625,-0.508655 -0.472656,0.103603 -1.139207,0.190482 -1.481225,0.193063 -0.342017,0.0026 -0.534413,0.146169 -0.427545,0.319084 0.106867,0.172915 -2e-5,0.392734 -0.237526,0.488487 -0.237506,0.09575 -0.277141,0.18106 -0.08808,0.189571 0.189062,0.0085 0.9625,-0.298187 1.71875,-0.68155 z M 23.40625,35.02339 c 0,-0.07307 -0.455893,-0.19977 -1.013096,-0.28155 -0.557202,-0.08178 -0.934792,-0.02199 -0.839087,0.132859 0.170333,0.275605 1.852183,0.410622 1.852183,0.148691 z m 3.78125,-0.0607 c -1.205845,-0.266167 -3.366607,-0.313578 -3.216423,-0.07057 0.08979,0.145276 0.966227,0.246195 1.947648,0.224264 0.98142,-0.02193 1.552369,-0.09109 1.268775,-0.15369 z m -2.434896,-2.086412 c 0.295343,-0.260379 -1.545829,-0.06545 -2.205729,0.233529 -0.479153,0.217086 -0.270805,0.248032 0.6875,0.102112 0.75625,-0.115152 1.439453,-0.266191 1.518229,-0.335641 z m 9.77182,-0.453984 c 0.815234,-0.805997 0.03523,-1.563614 -1.714661,-1.665444 -1.761922,-0.102531 -1.761922,-0.102531 -1.900448,1.084046 -0.138527,1.186576 -0.138527,1.186576 1.593267,1.027369 0.952486,-0.08756 1.862315,-0.288251 2.021842,-0.445971 z M 44.890625,32.0625 c -0.944998,-0.406079 -1.487738,-0.406079 -0.859375,0 0.283594,0.183272 0.747656,0.324719 1.03125,0.314326 0.339989,-0.01246 0.281442,-0.119529 -0.171875,-0.314326 z M 19.239571,31.302347 c 1.380382,-0.351069 1.47758,-0.430732 0.741717,-0.607906 -0.510173,-0.122834 -0.940694,-0.540556 -1.082922,-1.050729 -0.129847,-0.465761 -0.251505,-0.62217 -0.270351,-0.347577 -0.01884,0.274593 -0.536999,1.032605 -1.151453,1.68447 -0.771588,0.818569 -0.917404,1.114145 -0.471366,0.955483 0.355202,-0.126351 1.36067,-0.411534 2.234375,-0.633741 z m 23.642623,-0.008 c -0.218801,-0.138902 -1.635319,-0.239499 -3.147819,-0.223548 -1.5125,0.01595 -2.385667,0.129597 -1.940371,0.252548 1.11669,0.308331 5.579492,0.282894 5.08819,-0.029 z M 26.75127,30.105534 c -0.334457,-0.08715 -0.79852,-0.08142 -1.03125,0.01274 -0.23273,0.09416 0.04092,0.165471 0.608105,0.158465 0.567187,-0.007 0.757603,-0.08405 0.423145,-0.171202 z m 2.15498,-0.449284 c 0,-0.189062 -0.241161,-0.34375 -0.535912,-0.34375 -0.294752,0 -0.44031,0.154688 -0.323463,0.34375 C 28.163722,29.845312 28.404882,30 28.582787,30 28.760692,30 28.90625,29.845312 28.90625,29.65625 z M 18.099658,23.738866 c 1.903491,-0.01711 1.903491,-0.01711 2.784854,-1.776422 0.48475,-0.967626 1.057088,-2.002745 1.271863,-2.300265 0.214775,-0.297521 -0.305594,0.20527 -1.156375,1.117312 -0.850781,0.912042 -1.793604,1.658203 -2.09516,1.658134 -0.694733,-1.58e-4 -1.772844,-1.165062 -1.429028,-1.54407 0.14221,-0.156766 0.07196,-0.177931 -0.156112,-0.04703 -0.22807,0.130897 -0.32678,0.467042 -0.219355,0.746989 0.279391,0.728082 -0.475363,1.491637 -1.269234,1.284035 -0.371173,-0.09706 -0.674861,-0.296576 -0.674861,-0.443361 0,-0.146784 -0.267064,-0.369362 -0.593475,-0.494618 -0.431292,-0.165502 -0.367947,0.01233 0.231795,0.650723 0.80013,0.851699 0.566716,1.289746 -0.251341,0.471689 -0.515589,-0.515589 -0.91455,-0.142891 -0.632854,0.591196 0.161685,0.421343 0.467501,0.50216 1.249925,0.33031 0.569727,-0.125133 1.892438,-0.235211 2.939358,-0.244619 z M 49.1875,23.705191 c 0,-0.248082 0.318515,-1.110306 0.707809,-1.916053 0.814966,-1.686787 0.772248,-2.351591 -0.192184,-2.990747 -0.872338,-0.578124 -1.03632,1.468949 -0.173607,2.167239 0.284545,0.230315 0.374849,0.423675 0.200674,0.429688 -0.174175,0.006 -0.59278,-0.238933 -0.930236,-0.544325 -0.564853,-0.511186 -0.657662,-0.511143 -1.169351,5.5e-4 -0.794812,0.794812 -0.500074,1.779573 0.4992,1.667906 0.67219,-0.07512 0.735773,-0.0068 0.386004,0.41463 -0.429567,0.517594 -0.228817,1.222171 0.348229,1.222171 0.177904,0 0.323462,-0.202976 0.323462,-0.451059 z M 16.162102,21.547522 c -0.608697,-0.733435 -1.081322,-0.580841 -0.656949,0.212106 0.2052,0.38342 0.527529,0.60168 0.716286,0.485022 0.221348,-0.136801 0.200281,-0.384307 -0.05934,-0.697128 z m 6.556648,-3.854744 c 0,-0.05959 -0.193359,8.25e-4 -0.429688,0.134239 -0.316699,0.178802 -0.31218,0.116344 0.01719,-0.237525 0.245781,-0.264064 0.6325,-0.487148 0.859375,-0.495742 0.226875,-0.0086 0.367375,-0.221314 0.312221,-0.472711 -0.155853,-0.710406 0.938424,-1.706376 1.943018,-1.768461 7.157107,-0.442321 14.003509,-0.113283 14.771607,0.709922 0.801846,0.859375 0.801846,0.859375 0.05965,-0.261854 C 39.843916,14.68397 39.36707,14.267708 39.192464,14.37562 39.017859,14.483532 38.875,14.433636 38.875,14.264739 c 0,-0.611087 -6.883418,-1.089208 -10.65625,-0.740182 -3.609375,0.333905 -3.609375,0.333905 -6.478828,3.247997 -1.578199,1.602751 -3.007287,2.828907 -3.17575,2.724791 -0.168464,-0.104116 -0.215885,0.08944 -0.105382,0.430114 0.110503,0.340679 0.262698,0.823549 0.338211,1.073045 0.111068,0.366971 3.921749,-2.847077 3.921749,-3.307726 z m -5.39418,1.627193 c 0.13509,-0.516588 -0.0053,-0.663721 -0.63334,-0.663721 -0.991006,0 -1.385588,0.554745 -0.851941,1.19775 0.502563,0.605551 1.258334,0.333815 1.485281,-0.534029 z M 47.038103,18.58908 c 0.297361,-0.358299 0.03671,-0.448455 -1.296521,-0.448455 -1.668705,0 -1.668705,0 -0.954584,0.760146 0.735164,0.782548 1.421877,0.687465 2.251105,-0.311691 z M 15.733457,17.28125 c 0.439446,0 0.459687,-0.09463 0.110293,-0.515625 -0.582595,-0.701984 -1.262261,-0.647439 -2.141691,0.171875 -0.880813,0.820602 -0.272993,0.906021 1.036598,0.145677 0.901111,-0.523182 0.906608,-0.52174 0.159781,0.04193 -0.425391,0.321063 -0.773438,0.831334 -0.773438,1.133934 0,0.41285 0.133573,0.359481 0.535117,-0.213803 0.294314,-0.420192 0.777317,-0.763986 1.07334,-0.763986 z m 3.461809,0.143183 c -0.32758,-0.32758 -0.984326,0.203018 -0.7402,0.598021 0.145104,0.234783 0.337379,0.228851 0.584253,-0.01802 0.202385,-0.202385 0.272561,-0.463385 0.155947,-0.579999 z m 28.137417,-1.081334 c -0.349428,-0.349427 -0.637742,0.17665 -0.351044,0.640537 0.216573,0.350425 0.297543,0.350696 0.413978,0.0014 0.07961,-0.238832 0.05129,-0.527697 -0.06293,-0.641923 z M 39.12627,43.868271 c 0.23273,-0.09416 0.696793,-0.09989 1.03125,-0.01272 0.334458,0.08715 0.144043,0.164195 -0.423145,0.171201 -0.567188,0.007 -0.840835,-0.0643 -0.608105,-0.158465 z m -2.549246,-1.985012 c 0.224043,-0.482842 0.518382,-0.879103 0.654086,-0.880578 0.37211,-0.004 -0.256126,1.490033 -0.686915,1.633627 -0.256678,0.08556 -0.246349,-0.151387 0.03283,-0.753049 z m 4.278546,-4.22013 c 0.427595,-0.08222 1.046345,-0.0791 1.375,0.0069 0.328656,0.08604 -0.02119,0.153311 -0.777445,0.149496 -0.75625,-0.0038 -1.025149,-0.07421 -0.597555,-0.156433 z m 0.167867,-3.087585 c 0.33086,-0.08646 0.872266,-0.08646 1.203125,0 0.33086,0.08646 0.06016,0.157205 -0.601562,0.157205 -0.661719,0 -0.932422,-0.07074 -0.601563,-0.157205 z m 6.474174,-3.342642 c -0.625491,-0.645341 -1.081224,-1.313327 -1.012746,-1.484413 0.06848,-0.171086 0.625075,0.356921 1.236875,1.173348 1.341725,1.790487 1.285467,1.868571 -0.224129,0.311065 z"
       id="path5062" />
    <path
       sodipodi:type="arc"
       style="fill:none;stroke:#ffd700;stroke-width:4.74074125;stroke-miterlimit:4;stroke-opacity:1;stroke-dasharray:none"
       id="path2694"
       sodipodi:cx="32"
       sodipodi:cy="32"
       sodipodi:rx="32"
       sodipodi:ry="32"
       d="M 64,32 A 32,32 0 1 1 0,32 32,32 0 1 1 64,32 z"
       transform="matrix(0.84375,0,0,0.84374999,5.0000001,5.0000003)" />
  </g>
</svg>
