<?xml version="1.0" encoding="UTF-8" standalone="no"?>
<!-- Created with Inkscape (http://www.inkscape.org/) -->
<svg
   xmlns:svg="http://www.w3.org/2000/svg"
   xmlns="http://www.w3.org/2000/svg"
   version="1.0"
   width="64"
   height="64"
   id="svg2">
  <defs
     id="defs4" />
  <g
     id="g3178">
    <path
       d="m 6.513112,63.10462 c 0.00721,-0.499091 0.4295755,-1.806675 0.938587,-2.905742 l 0.925475,-1.998303 0.5853965,1.469382 C 9.9091715,62.045989 9.487396,63.668616 7.875,63.853984 6.8180655,63.975496 6.503033,63.802153 6.513112,63.10462 z m 5.573536,-2.235751 c 0.231627,-1.692253 0.33317,-3.164723 0.225651,-3.272151 -0.614884,-0.614359 -5.58206,-0.51295 -6.5047865,0.132802 -0.5665105,0.396463 -1.3907342,0.720843 -1.8316086,0.720843 -0.4408744,0 -1.3235165,0.555093 -1.9614268,1.233542 C 0.37348613,61.429178 -0.00106715,60.890416 0.00765639,56.797257 0.01619869,52.78914 0.12600389,52.526523 2.25,51.434366 3.7168367,50.680116 3.7477335,50.586231 3.6474824,47.18797 3.4264536,39.695642 3.5220925,38.380931 4.5439836,34.864107 6.7569665,27.248153 6.7764135,27.089154 5.646396,25.850549 2.5175744,22.421068 2.5871882,14.690024 5.7577355,13.485607 c 1.272507,-0.483396 6.4023855,0.157983 8.9019485,1.112993 1.320112,0.504376 1.590156,0.361915 4.249999,-2.242077 L 21.75,9.575847 26.626858,9.2245568 c 2.682272,-0.1932094 7.280957,-0.1875652 10.219301,0.012543 l 5.342443,0.3638325 2.917229,2.7802038 2.917229,2.780205 1.755433,-0.836398 c 3.411727,-1.625559 7.274837,-0.940586 8.999797,1.595762 1.57225,2.311815 1.539585,3.152785 -0.29922,7.703041 l -1.52093,3.763654 1.95958,6.414224 1.95958,6.414224 -0.340185,6.494485 -0.34019,6.494484 1.90154,1.77848 C 63.959155,56.723574 64,56.838921 64,60.353736 l 0,3.59196 -26.167246,0 -26.167245,0 0.421139,-3.076827 z M 21,32.688666 c 5.016614,-0.378025 6.739448,-0.915809 6.917332,-2.159252 0.221448,-1.547956 -0.634302,-2.410632 -1.598314,-1.611252 -0.404295,0.33525 -1.270302,0.462674 -1.963328,0.288883 -0.79235,-0.198698 -1.97564,0.06405 -3.277908,0.727852 -1.120869,0.571339 -2.310441,1.038799 -2.643492,1.038799 -0.74687,0 -2.43429,1.479243 -2.43429,2.133971 0,0.279473 0.57507,0.327765 1.375,0.115467 0.75625,-0.200706 2.3875,-0.441216 3.625,-0.534468 z"
       id="path3166"
       style="fill:#a89d42" />
    <path
       d="m 6.5,63.475605 c 0,-0.290983 0.225,-0.52906 0.5,-0.52906 0.275,0 0.5,0.09913 0.5,0.220302 0,0.121168 -0.225,0.359245 -0.5,0.529061 -0.275,0.169816 -0.5,0.07068 -0.5,-0.220303 z m 6.15911,-2.554066 C 13.257906,57.206514 13.137361,57.072878 8.7490415,56.58674 4.373041,56.101967 3.9846659,55.49828 4.0021318,49.208211 4.0089984,46.735311 3.873474,43.678828 3.7009664,42.416026 3.4771104,40.777341 3.677793,39.204094 4.4019485,36.920693 7.2341035,27.990366 7.425818,26.439806 5.7760355,25.807262 3.7328325,25.023876 2.971097,16.451695 4.7683621,14.467424 5.986964,13.122027 13.981682,13.769989 15.554669,15.341641 16.695885,16.481888 13.63412,18.18303 11.558803,17.561777 9.154684,16.842096 7.8949,17.246585 8.098564,18.672782 c 0.121128,0.848223 0.4732875,1.046083 1.7595975,0.988628 1.1779855,-0.05262 1.6885525,0.181243 1.9086945,0.874258 0.497101,1.564897 1.52802,1.100738 4.833581,-2.176259 6.09268,-6.040035 6.678014,-6.456393 8.576416,-6.100553 1.823875,0.341871 3.011507,-0.534366 1.766384,-1.303242 -1.403214,-0.866497 0.382538,-1.397473 4.806763,-1.429243 9.901925,-0.071105 9.931798,-0.064495 12.886961,2.851482 1.454466,1.435181 2.910743,2.609419 3.23617,2.609419 0.325427,0 0.852719,0.505821 1.171758,1.124046 1.636846,3.171823 3.624876,4.117641 5.139671,2.445232 1.36681,-1.509027 0.546025,-2.570126 -1.988055,-2.570126 -2.535241,0 -3.045277,-1.133749 -0.94099,-2.091713 2.347565,-1.068714 5.625105,0.01792 7.376365,2.445556 l 1.516615,2.102357 -1.57425,4.167486 c -1.94409,5.146569 -1.950815,4.770567 0.20896,11.683231 l 1.7832,5.707403 -0.330105,7.168059 c -0.23193,5.036198 -0.1652,7.269892 0.22437,7.510457 0.754815,0.466104 2.010145,3.471078 2.77541,6.643663 l 0.63264,2.622773 -25.848526,0 -25.848524,0 0.48744,-3.024157 z M 34.270638,47.256607 c 0.893126,-0.652516 0.913301,-0.87536 0.28268,-3.122349 -1.217262,-4.337273 -1.21591,-4.354126 0.42257,-5.269008 C 36.160097,38.204019 36.5,37.671309 36.5,36.476586 c 0,-1.80058 -0.159351,-1.880391 -4.75,-2.379065 l -3.5,-0.380199 0.173554,-2.867603 c 0.185283,-3.061388 -0.629945,-4.153472 -2.155927,-2.888094 -0.395802,0.328208 -1.137707,0.464164 -1.648678,0.302126 -1.452409,-0.460586 -7.193747,2.104878 -8.694703,3.885147 -1.684698,1.998206 -0.891429,2.609468 2.166524,1.669441 3.538256,-1.087677 9.15923,-0.840602 9.15923,0.4026 0,0.912925 -0.3452,1.002221 -4,1.034719 -2.736079,0.02433 -5.421911,0.446849 -8.5,1.337168 -2.475,0.715878 -5.175,1.396817 -6,1.513199 -0.985194,0.138981 -0.64199,0.234614 1,0.278652 1.375,0.03688 3.85,-0.2959 5.5,-0.739503 1.956653,-0.526046 4.620732,-0.768506 7.66019,-0.697161 4.352155,0.102159 4.678242,0.04041 4.933315,-0.934161 0.997632,-3.811711 2.469215,2.367124 1.839251,7.722586 -0.485443,4.12685 1.584077,5.714741 4.587882,3.520169 z M 15.5,42.910868 c 0.533099,-0.29608 0.316197,-0.415821 -0.75,-0.414035 -0.825,0.0014 -2.0625,0.320887 -2.75,0.710013 -1.204194,0.681576 -1.176711,0.696748 0.75,0.414035 1.1,-0.161407 2.3375,-0.480913 2.75,-0.710013 z m -4.625,-12.55965 c 1.935069,-2.947712 2.043236,-3.873703 0.452494,-3.873703 -1.971034,0 -2.996748,1.671063 -3.153469,5.137537 -0.1172055,2.592443 -0.039928,2.949025 0.4677875,2.158504 C 8.9763155,33.252729 9.98125,31.712677 10.875,30.351218 z M 19.5,19.483454 c 0.587452,-0.8243 0.955594,-1.498727 0.818094,-1.498727 -0.1375,0 -0.730642,0.674427 -1.318094,1.498727 -0.587452,0.8243 -0.955594,1.498727 -0.818094,1.498727 0.1375,0 0.730642,-0.674427 1.318094,-1.498727 z M 2.0076564,56.106863 C 2.0034454,55.504854 2.225,54.87336 2.5,54.703545 3.1365934,54.310443 3.1365934,55.467836 2.5,56.45206 2.1059571,57.061282 2.0138809,56.996722 2.0076564,56.106863 z M 0.28214647,53.308165 c 0.18776567,-0.492692 0.46734593,-0.769957 0.62128948,-0.616142 0.15394355,0.153814 3.171e-4,0.556922 -0.3413921,0.895804 -0.49380792,0.489714 -0.5512397,0.432333 -0.27989738,-0.279662 z M 21.831933,10.459184 c 0.362122,-0.361813 1.072424,-0.376197 2.225,-0.04506 l 1.693067,0.486426 -2.225,0.04506 c -1.572382,0.03184 -2.068978,-0.110834 -1.693067,-0.486427 z"
       id="path3164"
       style="fill:#857a46" />
    <path
       d="m 12.446947,63.04559 c 0.265171,-0.495054 0.554338,-1.999322 0.642592,-3.342806 C 13.268943,56.971723 13.7302,57.268851 7.5220285,56.116315 4.8372621,55.617893 4.6212953,55.090416 4.54984,48.857037 4.522428,46.465756 4.248913,43.958646 3.9420289,43.285681 2.6770593,40.511731 3.7935821,39.463322 8.254478,39.236313 c 2.197537,-0.11183 5.550421,-0.64764 7.450854,-1.190689 2.772654,-0.792287 4.368005,-0.932959 8.074768,-0.711997 4.244632,0.253023 4.636877,0.198719 4.834406,-0.669298 0.398928,-1.753044 0.995149,5.684704 0.654228,8.16139 -0.441391,3.206575 0.196399,3.796121 3.44979,3.188837 3.402843,-0.635181 3.565782,-0.955105 2.360221,-4.634229 l -1.036922,-3.164479 1.229088,-0.915925 c 3.070094,-2.287856 1.441099,-5.306057 -2.872384,-5.32195 -3.452515,-0.01272 -4.277201,-0.741163 -4.008015,-3.540264 0.253877,-2.639895 -0.651642,-3.696071 -2.122885,-2.476084 -0.395802,0.328208 -1.137707,0.464164 -1.648678,0.302126 -1.439384,-0.456456 -7.189537,2.104428 -8.723629,3.885147 -1.88589,2.189076 -1.741097,2.501231 0.97968,2.112051 4.663222,-0.667028 9.688495,-0.72921 9.480282,-0.117308 -0.122572,0.360216 -1.493707,0.580472 -3.650788,0.586452 -2.26397,0.0063 -5.153965,0.494795 -8.385777,1.417513 -5.7367635,1.637908 -6.4203125,1.362986 -4.050558,-1.629127 0.952512,-1.202666 1.736844,-2.43604 1.742959,-2.740831 C 12.017233,31.472859 12.462229,30.661462 13,29.974545 15.351867,26.970405 13.484951,24.878896 9.6246365,26.193122 5.9487105,27.444574 4,24.710425 4,18.301448 c 0,-5.118734 0.8570006,-5.425205 9.875,-3.531394 1.377756,0.289334 1.445161,1.271594 0.166593,2.4277 -0.751367,0.679402 -1.176314,0.750087 -1.967129,0.327215 -1.508001,-0.806373 -3.918315,-0.667395 -4.2691765,0.24616 -0.493096,1.283898 0.6156835,2.793328 1.9258765,2.621782 0.756849,-0.0991 1.509659,0.276156 2.157392,1.075394 l 0.994896,1.227602 3.152569,-3.381353 c 4.253055,-4.561702 7.407626,-6.823193 9.530968,-6.832682 0.925656,-0.0041 2.583011,-0.331483 3.683011,-0.727436 1.1,-0.395952 2.744529,-0.729781 3.654508,-0.741841 0.90998,-0.01206 1.530023,-0.223181 1.377873,-0.469156 -1.537562,-2.4857163 7.347077,-0.5474278 10.305657,2.2483 1.475897,1.394658 2.903615,2.6278 3.172705,2.740319 0.269092,0.112517 1.097308,1.018597 1.84048,2.013509 1.580272,2.115562 2.928367,2.610954 4.366432,1.60455 2.227755,-1.559057 1.074025,-3.663269 -2.00855,-3.663269 -1.81936,0 -1.89641,-0.857759 -0.137085,-1.526087 1.815585,-0.689697 4.561805,0.262616 6.30298,2.185696 1.74034,1.922157 1.72381,2.850478 -0.132535,7.444137 l -1.50753,3.7305 1.940715,6.284149 1.94072,6.284147 -0.25303,7.029947 -0.25303,7.029943 1.60133,3.25001 c 0.880735,1.787502 1.729105,4.036697 1.88527,4.998206 l 0.28393,1.7482 -10.261925,0 C 42.136872,63.945696 42.5,64.047205 42.5,60.907381 c 0,-1.426344 -0.05676,-1.457747 -2.625,-1.452366 -4.759082,0.01 -6.424964,0.466483 -5.82047,1.59503 0.28736,0.536484 0.405288,1.280543 0.26206,1.653471 -0.143227,0.372928 0.0082,0.787231 0.336498,0.920673 0.328302,0.133447 -4.642255,0.260374 -11.04568,0.282065 -11.067126,0.03749 -11.618761,-0.005 -11.160461,-0.860664 z M 14,51.379837 c 2.0625,-0.792692 4.59375,-1.578126 5.625,-1.745401 2.253849,-0.365588 2.421268,-0.976322 0.38984,-1.422119 C 18.723305,47.928889 15.119958,48.271526 9.0574455,49.25424 7.521734,49.503176 7.3906715,49.430097 7.643102,48.46562 7.820134,47.789223 7.711838,47.472405 7.345322,47.594474 6.0118455,48.03859 5.8237335,51.401858 7.0744105,52.438123 8.3790025,53.519061 8.4703025,53.505112 14,51.379837 z m 13,-3.450048 c 0,-0.258551 -0.225,-0.470093 -0.5,-0.470093 -0.275,0 -0.5,0.350482 -0.5,0.778847 0,0.428366 0.225,0.639908 0.5,0.470093 C 26.775,48.53882 27,48.188339 27,47.929789 z M 11.75,44.209893 c 2.475,-0.411349 5.625,-1.045965 7,-1.410259 l 2.5,-0.662352 -2.615984,-0.352259 C 16.245696,41.46342 12.455039,42.074901 9.141077,43.316354 8.378723,43.60194 8.343301,43.535417 8.895869,42.855844 9.8205185,41.71867 8.657629,41.396238 6.875,42.295525 c -1.4388875,0.725877 -1.8175595,1.905029 -0.75,2.335433 0.9258875,0.373287 0.7797115,0.384229 5.625,-0.421065 z M 27,42.463939 c 0,-0.274767 -0.463279,-0.499576 -1.029509,-0.499576 -0.566229,0 -0.890451,0.224809 -0.720491,0.499576 0.16996,0.274766 0.633238,0.499576 1.029508,0.499576 0.396271,0 0.720492,-0.22481 0.720492,-0.499576 z m -2.105838,-2.430422 c 0.152252,-0.456368 -0.611479,-0.578191 -2.929425,-0.467275 -4.133856,0.197809 -4.452419,1.159508 -0.369967,1.116881 1.986277,-0.02074 3.167158,-0.25324 3.299392,-0.649606 z M 21.858149,17.632578 c 1.355848,-0.586366 1.360748,-0.60252 0.189433,-0.62447 C 20.69367,16.982737 17,20.506048 17,21.822886 c 0,0.463522 0.72724,-0.121774 1.733149,-1.394868 0.953231,-1.206427 2.359481,-2.464375 3.125,-2.79544 z"
       id="path3162"
       style="fill:#70684a" />
    <path
       d="m 12.751743,63.071438 c 1.815035,-4.423378 0.775573,-6.429929 -3.5719,-6.895109 -2.68283,-0.287061 -3.330422,-0.53613 -3.6668165,-1.410287 -0.5628997,-1.462748 0.087758,-1.971331 1.626085,-1.271016 1.111974,0.506215 2.114339,0.304906 7.2200595,-1.450049 3.260852,-1.120828 7.45711,-2.194319 9.325018,-2.385529 2.975751,-0.304616 3.453121,-0.497249 3.856004,-1.556013 0.765579,-2.011918 0.0038,-2.312985 -1.757968,-0.694772 -0.924911,0.849546 -1.334752,0.892143 -3.942138,0.409721 C 19.664381,47.415831 17.598821,47.442561 13.653562,47.92433 9.2311935,48.464358 8.304507,48.458686 7.9294745,47.88929 7.57628,47.35305 7.230511,47.493641 6.2883775,48.556567 L 5.0947555,49.903225 4.7771796,48.638976 C 4.1826684,46.272265 4.7939397,45.601644 7.891045,45.222788 9.46347,45.030439 12.8875,44.433161 15.5,43.895502 c 3.54421,-0.729407 5.670208,-0.893468 8.375,-0.646292 3.463095,0.316473 3.625,0.284021 3.625,-0.726577 0,-0.983379 -0.263977,-1.057846 -3.75,-1.057846 -2.0625,0 -3.75,-0.182734 -3.75,-0.406075 0,-0.223342 1.046435,-0.391949 2.325411,-0.374682 1.436199,0.01939 2.408106,-0.207397 2.541667,-0.593076 0.32664,-0.943222 -5.301721,-0.838422 -6.35992,0.118422 -1.109276,1.003029 -7.923983,2.26143 -9.3378695,1.724327 -0.822924,-0.31261 -1.5605785,-0.108986 -2.903295,0.801433 -1.4377687,0.974869 -1.854916,1.077717 -2.0725719,0.510995 -0.4416512,-1.149947 0.027186,-3.041372 0.718136,-2.897167 C 5.6921165,40.511871 14.406311,38.772702 17.5,37.836577 c 1.781008,-0.538918 3.135874,-0.570169 6.5,-0.149931 5.808242,0.725551 5.69596,0.608776 5.346241,5.560131 -0.352939,4.996941 -0.06165,5.408764 3.372283,4.767779 3.402843,-0.635181 3.565782,-0.955105 2.360221,-4.634229 l -1.036922,-3.164479 1.229088,-0.915925 c 2.914734,-2.172081 1.452274,-5.303608 -2.485412,-5.32195 -3.549361,-0.01653 -4.64806,-0.908715 -4.392433,-3.566813 0.251299,-2.613098 -0.660684,-3.664143 -2.125439,-2.449535 -0.395802,0.328208 -1.137707,0.464164 -1.648678,0.302126 -2.808911,-0.890758 -11.711554,5.066714 -9.786296,6.548793 0.644841,0.496403 0.432468,0.682015 -1.319724,1.153432 -3.8531535,1.036666 -3.9731635,0.334787 -0.640052,-3.74334 0.224571,-0.274767 0.698591,-1.478415 1.05338,-2.674772 0.354788,-1.196358 0.760003,-2.474453 0.900477,-2.840213 0.465663,-1.212468 -3.308368,-1.958675 -5.4289025,-1.073411 -3.222673,1.345376 -4.8890273,-1.11895 -4.895043,-7.239147 -0.00431,-4.38423 0.824349,-4.889817 6.2888205,-3.836981 5.029997,0.969126 5.00927,3.205961 -0.02423,2.614874 -2.174852,-0.255394 -2.669045,-0.164876 -2.9391235,0.53834 -0.5349625,1.392908 0.583382,2.904636 1.9549845,2.64266 0.83478,-0.159444 1.279096,0.03742 1.474774,0.653426 0.644098,2.027647 1.808255,1.469222 6.712544,-3.219882 5.68226,-5.43294 4.965713,-5.202092 17.42948,-5.61521 l 7.650037,-0.253564 2.099963,1.783537 c 1.154979,0.980944 2.999962,2.65609 4.099962,3.722546 2.446045,2.371454 3.326875,2.698591 4.6926,1.742811 2.149955,-1.504609 1.125065,-3.680802 -1.733495,-3.680802 -1.58985,0 -1.55497,-0.893382 0.0506,-1.296013 1.609455,-0.403604 4.107415,0.62878 5.865295,2.424075 1.707065,1.743398 1.716655,1.527363 -0.292235,6.582859 l -1.66723,4.195701 1.91715,6.161401 1.91715,6.161401 -0.30246,7.264003 c -0.262365,6.301162 -0.19608,7.352215 0.500085,7.929489 1.49951,1.243425 1.005215,2.364458 -0.94239,2.13728 -2.40841,-0.280931 -2.665905,0.763692 -0.96013,3.895108 1.605895,2.948051 2.316855,2.719515 3.089365,-0.993062 l 0.467785,-2.248091 0.61784,1.498727 c 0.339815,0.8243 0.740035,2.229357 0.889375,3.122349 l 0.271535,1.623621 -10.06542,0 -10.06542,0 0,-1.937135 c 0,-3.136137 -0.310408,-3.218257 -10.834357,-2.866351 -10.648498,0.356073 -9.954718,0.14779 -9.284185,2.787243 l 0.512212,2.016243 -5.75033,0 c -5.27983,0 -5.720977,-0.07153 -5.391597,-0.874258 z M 41.125,46.252388 c 0.06875,-0.25187 -0.15625,-0.551614 -0.5,-0.666101 C 40.28125,45.4718 40,45.752812 40,46.210757 c 0,0.845958 0.896397,0.87913 1.125,0.04163 z M 41,40.436153 c 0,-0.258552 -0.225,-0.470093 -0.5,-0.470093 -0.275,0 -0.5,0.350481 -0.5,0.778847 0,0.428366 0.225,0.639908 0.5,0.470092 0.275,-0.169815 0.5,-0.520296 0.5,-0.778846 z M 20.352273,18.609467 c 0.927176,-0.945718 1.642002,-1.125531 4.5,-1.131966 2.134341,-0.0048 3.141166,-0.170009 2.707737,-0.444297 -3.036121,-1.921352 -8.64109,0.220517 -10.608669,4.053969 -1.383301,2.695101 -1.141631,2.920745 0.690424,0.644643 0.884529,-1.098919 2.104258,-2.503975 2.710508,-3.122349 z"
       id="path3160"
       style="fill:#02e736" />
    <path
       d="m 12.751743,63.071438 c 1.815035,-4.423378 0.775573,-6.429929 -3.5719,-6.895109 -2.68283,-0.287061 -3.330422,-0.53613 -3.6668165,-1.410287 -0.5628997,-1.462748 0.087758,-1.971331 1.626085,-1.271016 1.111974,0.506215 2.114339,0.304906 7.2200595,-1.450049 3.260852,-1.120828 7.45711,-2.194319 9.325018,-2.385529 2.975751,-0.304616 3.453121,-0.497249 3.856004,-1.556013 0.765579,-2.011918 0.0038,-2.312985 -1.757968,-0.694772 -0.924911,0.849546 -1.334752,0.892143 -3.942138,0.409721 C 19.664381,47.415831 17.598821,47.442561 13.653562,47.92433 9.2311935,48.464358 8.304507,48.458686 7.9294745,47.88929 7.57628,47.35305 7.230511,47.493641 6.2883775,48.556567 L 5.0947555,49.903225 4.7771796,48.638976 C 4.1826684,46.272265 4.7939397,45.601644 7.891045,45.222788 9.46347,45.030439 12.8875,44.433161 15.5,43.895502 c 3.54421,-0.729407 5.670208,-0.893468 8.375,-0.646292 3.463095,0.316473 3.625,0.284021 3.625,-0.726577 0,-0.983379 -0.263977,-1.057846 -3.75,-1.057846 -2.0625,0 -3.75,-0.182734 -3.75,-0.406075 0,-0.223342 1.046435,-0.391949 2.325411,-0.374682 1.436199,0.01939 2.408106,-0.207397 2.541667,-0.593076 0.32664,-0.943222 -5.301721,-0.838422 -6.35992,0.118422 -1.109276,1.003029 -7.923983,2.26143 -9.3378695,1.724327 -0.822924,-0.31261 -1.5605785,-0.108986 -2.903295,0.801433 -1.4377687,0.974869 -1.854916,1.077717 -2.0725719,0.510995 -0.4416512,-1.149947 0.027186,-3.041372 0.718136,-2.897167 C 5.6921165,40.511871 14.406311,38.772702 17.5,37.836577 c 1.781008,-0.538918 3.135874,-0.570169 6.5,-0.149931 5.808242,0.725551 5.69596,0.608776 5.346241,5.560131 -0.352939,4.996941 -0.06165,5.408764 3.372283,4.767779 3.402843,-0.635181 3.565782,-0.955105 2.360221,-4.634229 l -1.036922,-3.164479 1.229088,-0.915925 c 3.028914,-2.257167 1.449671,-5.294699 -2.770911,-5.3296 -2.649194,-0.02191 -3.528334,-0.780229 -2.17519,-1.876257 1.315379,-1.065439 3.162258,-4.721101 4.700719,-9.304472 1.450007,-4.31985 1.031033,-4.804867 -4.150602,-4.804867 -2.161974,0 -3.319481,-0.185048 -3.124927,-0.499576 0.368296,-0.59541 0.358888,-0.597331 -3.664967,-0.748523 -3.991623,-0.14998 -9.290824,4.389913 -7.847591,6.723129 0.950296,1.536307 -0.83383,2.899551 -2.789971,2.131809 -1.750408,-0.686997 -2.146359,-0.686281 -3.9129845,0.0071 -3.399958,1.334408 -5.0255933,-0.992909 -5.031698,-7.203554 -0.00431,-4.38423 0.824349,-4.889817 6.2888205,-3.836981 5.029997,0.969126 5.00927,3.205961 -0.02423,2.614874 -2.174852,-0.255394 -2.669045,-0.164876 -2.9391235,0.53834 -0.5349625,1.392908 0.583382,2.904636 1.9549845,2.64266 0.83478,-0.159444 1.279096,0.03742 1.474774,0.653426 0.644098,2.027647 1.808255,1.469222 6.712544,-3.219882 5.68226,-5.43294 4.965713,-5.202092 17.42948,-5.61521 l 7.650037,-0.253564 2.099963,1.783537 c 1.154979,0.980944 2.999962,2.65609 4.099962,3.722546 2.446045,2.371454 3.326875,2.698591 4.6926,1.742811 2.149955,-1.504609 1.125065,-3.680802 -1.733495,-3.680802 -1.58985,0 -1.55497,-0.893382 0.0506,-1.296013 1.609455,-0.403604 4.107415,0.62878 5.865295,2.424075 1.707065,1.743398 1.716655,1.527363 -0.292235,6.582859 l -1.66723,4.195701 1.91715,6.161401 1.91715,6.161401 -0.30246,7.264003 c -0.262365,6.301162 -0.19608,7.352215 0.500085,7.929489 1.49951,1.243425 1.005215,2.364458 -0.94239,2.13728 -2.40841,-0.280931 -2.665905,0.763692 -0.96013,3.895108 1.605895,2.948051 2.316855,2.719515 3.089365,-0.993062 l 0.467785,-2.248091 0.61784,1.498727 c 0.339815,0.8243 0.740035,2.229357 0.889375,3.122349 l 0.271535,1.623621 -10.06542,0 -10.06542,0 0,-1.937135 c 0,-3.136137 -0.310408,-3.218257 -10.834357,-2.866351 -10.648498,0.356073 -9.954718,0.14779 -9.284185,2.787243 l 0.512212,2.016243 -5.75033,0 c -5.27983,0 -5.720977,-0.07153 -5.391597,-0.874258 z M 41.125,46.252388 c 0.06875,-0.25187 -0.15625,-0.551614 -0.5,-0.666101 C 40.28125,45.4718 40,45.752812 40,46.210757 c 0,0.845958 0.896397,0.87913 1.125,0.04163 z M 41,40.436153 c 0,-0.258552 -0.225,-0.470093 -0.5,-0.470093 -0.275,0 -0.5,0.350481 -0.5,0.778847 0,0.428366 0.225,0.639908 0.5,0.470092 0.275,-0.169815 0.5,-0.520296 0.5,-0.778846 z m 3.988882,-18.579714 c -0.01616,-0.907546 -1.860205,-3.167653 -2.259232,-2.768965 -0.186307,0.186149 0.151126,1.025824 0.749852,1.865945 1.183481,1.660637 1.526523,1.865868 1.50938,0.90302 z M 10.313421,35.84456 c 0.717608,-1.203219 2.439585,-3.624291 2.753738,-3.871712 0.174437,-0.137383 0.429587,-0.699406 0.566999,-1.248939 0.157024,-0.627965 0.294607,-0.303177 0.370341,0.874257 0.182358,2.83509 0.194403,2.877451 0.951013,3.344665 0.516484,0.318934 0.181571,0.581007 -1.25,0.978143 -2.647945,0.734572 -3.8594915,0.707281 -3.392091,-0.07641 z"
       id="path3158"
       style="fill:#5a5329" />
    <path
       d="m 14.007899,61.322923 c 1.196509,-3.619186 -0.205671,-5.370439 -4.299961,-5.370439 -3.214341,0 -4.061752,-1.147815 -1.147494,-1.554275 1.545745,-0.215592 4.808245,-1.049529 7.25,-1.853201 6.908825,-2.273944 9.359363,-2.474889 10.746239,-0.881197 C 27.653135,52.923771 29,53.393882 29,52.516622 c 0,-0.24112 -0.3375,-0.718265 -0.75,-1.06032 -0.856641,-0.710347 -0.935951,-1.430595 -0.272869,-2.478013 0.398398,-0.629319 0.59158,-0.612168 1.406714,0.124894 1.366703,1.235798 5.123267,1.135778 6.798725,-0.181019 1.414704,-1.11186 1.627372,-2.710451 0.892403,-6.708013 -0.327334,-1.780406 0.165099,-6.642311 0.730634,-7.213708 0.119566,-0.120806 0.582296,0.300881 1.028288,0.937084 0.752692,1.073707 1.029995,1.130502 3.8635,0.791288 1.678933,-0.200993 3.708685,-0.372048 4.510561,-0.380119 l 1.457956,-0.01468 -1.207956,-0.614074 c -0.664376,-0.33774 -3.063181,-0.762156 -5.330678,-0.943145 -2.267497,-0.18099 -4.700895,-0.548706 -5.40755,-0.817149 -0.706655,-0.268441 -2.62018,-0.488076 -4.252278,-0.488076 -2.826024,0 -3.923077,-0.664113 -2.192885,-1.327485 0.967218,-0.370842 3.230218,-4.827042 4.750509,-9.354496 1.446841,-4.308717 1.042928,-4.772089 -4.245639,-4.870631 C 28.117597,17.869364 27.68018,17.774469 29,17.532922 l 1.75,-0.320277 -1.699611,-0.613111 c -0.934787,-0.33721 -3.184787,-0.620215 -5,-0.628898 L 20.75,15.95485 22.063438,14.798569 C 23.817287,13.254574 27.236515,12.744431 35.75,12.756563 l 7,0.01 3.08991,2.368378 c 1.699451,1.302609 3.499451,2.927044 4,3.609858 C 51.94224,21.612619 56,20.947423 56,17.734939 c 0,-1.351662 0.52214,-1.539619 2.03287,-0.731786 1.347705,0.720657 1.210285,2.305862 -0.53287,6.14705 -1.85934,4.097209 -1.88469,3.473604 0.44832,11.028012 l 1.948315,6.308757 -0.42667,6.60871 c -0.23467,3.634792 -0.43641,7.072892 -0.44832,7.64023 -0.01422,0.677894 -0.627565,1.320214 -1.78911,1.873649 -1.425795,0.679338 -1.681045,1.011081 -1.320425,1.716148 0.24587,0.480706 0.575475,1.548445 0.73245,2.372745 0.156975,0.8243 0.43774,1.892143 0.62392,2.372984 0.41025,1.059536 -3.148285,1.294096 -4.16848,0.274767 -0.466665,-0.466269 -0.6,-0.466269 -0.6,0 0,0.413889 -1.181115,0.599491 -3.815026,0.599491 l -3.815026,0 0.245135,-2.172985 c 0.348467,-3.088966 -0.566911,-3.324167 -12.900582,-3.3147 -11.227243,0.0086 -11.226434,0.0084 -11.583975,3.177807 l -0.260578,2.309878 -3.61457,0 -3.614571,0 0.867092,-2.622773 z M 41.834065,45.749918 C 41.406909,44.637715 39.5,44.728511 39.5,45.861054 c 0,0.49458 0.271607,1.170613 0.603572,1.502296 0.796746,0.79607 2.165695,-0.480274 1.730493,-1.613432 z m 0.04498,-4.493269 1.129046,-1.190028 -1.46154,-0.509064 C 39.877522,38.976225 39.5,39.189813 39.5,40.715424 c 0,2.040944 0.786435,2.219856 2.379046,0.541225 z m 3.109836,-19.40021 c -0.01616,-0.907546 -1.860205,-3.167653 -2.259232,-2.768965 -0.186307,0.186149 0.151126,1.025824 0.749852,1.865945 1.183481,1.660637 1.526523,1.865868 1.50938,0.90302 z M 62.5,63.44612 c 0,-0.274766 0.225,-0.499575 0.5,-0.499575 0.275,0 0.5,0.224809 0.5,0.499575 0,0.274767 -0.225,0.499576 -0.5,0.499576 -0.275,0 -0.5,-0.224809 -0.5,-0.499576 z M 25.25,45.960969 C 25.073298,45.675303 22.223959,45.437877 18.595492,45.406472 L 12.25,45.351551 16,44.395466 c 5.764174,-1.469608 11.48939,-0.789616 10.698128,1.270632 -0.346482,0.902151 -0.991277,1.033446 -1.448128,0.294871 z m 2,-5.406416 c -0.55,-0.108206 -1.402515,-0.622097 -1.894478,-1.14198 -1.12558,-1.189458 0.809051,-1.415963 2.367713,-0.277208 1.142019,0.834356 0.859567,1.681403 -0.473235,1.419188 z M 12.05342,40.245736 c 1.636556,-1.635167 12.579537,-3.205844 11.628996,-1.669143 -0.163315,0.264026 -1.035501,0.341608 -1.938191,0.172407 -1.09226,-0.204737 -2.500909,0.03092 -4.211249,0.704497 -2.213164,0.871608 -6.125058,1.437193 -5.479556,0.792239 z M 13.5,31.972848 c 0,-1.099067 0.08887,-1.998303 0.197483,-1.998303 0.108615,0 0.28331,0.899236 0.388212,1.998303 0.104902,1.099067 0.01604,1.998303 -0.197482,1.998303 -0.213517,0 -0.388213,-0.899236 -0.388213,-1.998303 z m 1.785339,-6.494485 c 0.179881,-0.686916 0.526767,-1.462508 0.770859,-1.723536 0.71357,-0.763083 0.494589,0.331614 -0.344774,1.723536 l -0.753139,1.24894 0.327054,-1.24894 z M 6.1,24.878872 C 5.0862185,23.865952 5.3665605,22.870839 6.5591565,23.249032 8.105743,23.739483 7.5223335,22.399715 5.8305275,21.575775 4.8052383,21.076441 4.5917519,20.729653 4.9337527,20.11905 5.1888815,19.663546 5.1993,18.679054 4.9578909,17.838026 4.3413399,15.690062 5.1565555,14.487697 7.229447,14.487697 c 2.5580465,0 6.819949,1.10447 6.607059,1.712216 -0.189588,0.541222 -0.653858,0.541414 -3.8466425,0.0016 -3.6947125,-0.624687 -4.3048,2.367712 -1.0506855,5.153475 L 10.25,22.47714 9.125,23.43336 C 8.50625,23.959281 8,24.634557 8,24.933972 c 0,0.72661 -1.1510345,0.693231 -1.9,-0.0551 z"
       id="path3156"
       style="fill:#039d24" />
    <path
       d="m 14.007899,61.322923 c 1.196509,-3.619186 -0.205671,-5.370439 -4.299961,-5.370439 -3.214341,0 -4.061752,-1.147815 -1.147494,-1.554275 1.545745,-0.215592 4.808245,-1.049529 7.25,-1.853201 6.908825,-2.273944 9.359363,-2.474889 10.746239,-0.881197 C 27.653135,52.923771 29,53.393882 29,52.516622 c 0,-0.24112 -0.3375,-0.718265 -0.75,-1.06032 -0.856641,-0.710347 -0.935951,-1.430595 -0.272869,-2.478013 0.398398,-0.629319 0.59158,-0.612168 1.406714,0.124894 1.366703,1.235798 5.123267,1.135778 6.798725,-0.181019 1.414704,-1.11186 1.627372,-2.710451 0.892403,-6.708013 -0.327334,-1.780406 0.165099,-6.642311 0.730634,-7.213708 0.119566,-0.120806 0.582296,0.300881 1.028288,0.937084 0.752692,1.073707 1.029995,1.130502 3.8635,0.791288 1.678933,-0.200993 3.708685,-0.372048 4.510561,-0.380119 l 1.457956,-0.01468 -1.207956,-0.614074 C 46.79358,35.382205 44.45,34.952712 42.25,34.765518 c -4.642657,-0.395036 -10.129511,-1.702499 -7.385118,-1.7598 0.888185,-0.01855 2.501779,-0.388283 3.585764,-0.821639 1.364342,-0.545439 2.252237,-0.641118 2.885117,-0.310898 0.50283,0.262364 2.657987,0.636108 4.789237,0.830545 L 50,33.057247 50,31.253628 C 50,27.18313 45.273807,18.259147 42.86034,17.772544 42.249653,17.649417 39.120417,17.421796 35.906482,17.266721 32.692547,17.111644 29.471649,16.760137 28.748932,16.485594 28.026214,16.211051 25.930798,15.979319 24.09245,15.970636 L 20.75,15.95485 22.063438,14.798569 C 23.817287,13.254574 27.236515,12.744431 35.75,12.756563 l 7,0.01 3.08991,2.368378 c 1.699451,1.302609 3.499451,2.927044 4,3.609858 C 51.94224,21.612619 56,20.947423 56,17.734939 c 0,-1.351662 0.52214,-1.539619 2.03287,-0.731786 1.347705,0.720657 1.210285,2.305862 -0.53287,6.14705 -1.85934,4.097209 -1.88469,3.473604 0.44832,11.028012 l 1.948315,6.308757 -0.42667,6.60871 c -0.23467,3.634792 -0.43641,7.072892 -0.44832,7.64023 -0.01422,0.677894 -0.627565,1.320214 -1.78911,1.873649 -1.425795,0.679338 -1.681045,1.011081 -1.320425,1.716148 0.24587,0.480706 0.575475,1.548445 0.73245,2.372745 0.156975,0.8243 0.43774,1.892143 0.62392,2.372984 0.41025,1.059536 -3.148285,1.294096 -4.16848,0.274767 -0.466665,-0.466269 -0.6,-0.466269 -0.6,0 0,0.413889 -1.181115,0.599491 -3.815026,0.599491 l -3.815026,0 0.245135,-2.172985 c 0.348467,-3.088966 -0.566911,-3.324167 -12.900582,-3.3147 -11.227243,0.0086 -11.226434,0.0084 -11.583975,3.177807 l -0.260578,2.309878 -3.61457,0 -3.614571,0 0.867092,-2.622773 z M 41.834065,45.749918 C 41.406909,44.637715 39.5,44.728511 39.5,45.861054 c 0,0.49458 0.271607,1.170613 0.603572,1.502296 0.796746,0.79607 2.165695,-0.480274 1.730493,-1.613432 z m 0.04498,-4.493269 1.129046,-1.190028 -1.46154,-0.509064 C 39.877522,38.976225 39.5,39.189813 39.5,40.715424 c 0,2.040944 0.786435,2.219856 2.379046,0.541225 z M 62.5,63.44612 c 0,-0.274766 0.225,-0.499575 0.5,-0.499575 0.275,0 0.5,0.224809 0.5,0.499575 0,0.274767 -0.225,0.499576 -0.5,0.499576 -0.275,0 -0.5,-0.224809 -0.5,-0.499576 z M 25.25,45.960969 C 25.073298,45.675303 22.223959,45.437877 18.595492,45.406472 L 12.25,45.351551 16,44.395466 c 5.764174,-1.469608 11.48939,-0.789616 10.698128,1.270632 -0.346482,0.902151 -0.991277,1.033446 -1.448128,0.294871 z m 2,-5.406416 c -0.55,-0.108206 -1.402515,-0.622097 -1.894478,-1.14198 -1.12558,-1.189458 0.809051,-1.415963 2.367713,-0.277208 1.142019,0.834356 0.859567,1.681403 -0.473235,1.419188 z M 12.05342,40.245736 c 1.636556,-1.635167 12.579537,-3.205844 11.628996,-1.669143 -0.163315,0.264026 -1.035501,0.341608 -1.938191,0.172407 -1.09226,-0.204737 -2.500909,0.03092 -4.211249,0.704497 -2.213164,0.871608 -6.125058,1.437193 -5.479556,0.792239 z M 6.1,24.878872 C 5.0862185,23.865952 5.3665605,22.870839 6.5591565,23.249032 8.105743,23.739483 7.5223335,22.399715 5.8305275,21.575775 4.8052383,21.076441 4.5917519,20.729653 4.9337527,20.11905 5.1888815,19.663546 5.1993,18.679054 4.9578909,17.838026 4.3413399,15.690062 5.1565555,14.487697 7.229447,14.487697 c 2.5580465,0 6.819949,1.10447 6.607059,1.712216 -0.189588,0.541222 -0.653858,0.541414 -3.8466425,0.0016 -3.6947125,-0.624687 -4.3048,2.367712 -1.0506855,5.153475 L 10.25,22.47714 9.125,23.43336 C 8.50625,23.959281 8,24.634557 8,24.933972 c 0,0.72661 -1.1510345,0.693231 -1.9,-0.0551 z"
       id="path3154"
       style="fill:#262415" />
  </g>
  <g
     id="layer1">
    <path
       d="m 7,6.25 c 16,-4.5 59.75,-8 54.25,6.5 -5.951036,15.689094 7.071982,31.06516 -4.75,41.5 C 45.54203,63.922208 3.8528575,65.721425 6.25,51 8.8129802,35.260126 -4.1590996,14.945843 7,6.25 z"
       id="path3159"
       style="fill:none;stroke:#ffe000;stroke-width:4.99999905;stroke-linecap:round;stroke-linejoin:round;stroke-miterlimit:4;stroke-opacity:1;stroke-dasharray:9.9999979, 9.9999979;stroke-dashoffset:0" />
  </g>
</svg>
