# Blender3D v245 OBJ File: <memory>
# www.blender3d.org
mtllib sword.mtl
o Hilt
v -0.504179 2.983301 0.077380
v -0.710200 3.023175 0.077380
v -0.710200 3.023175 -0.077380
v -0.504179 2.983301 -0.077380
v -0.488569 2.777870 0.107145
v -0.320220 2.767475 0.150242
v -0.313576 2.983301 0.155270
v -0.122974 2.983301 0.097932
v 0.083048 3.023175 0.077380
v 0.117951 3.322922 0.077380
v -0.076467 3.184070 0.097932
v -0.126918 2.767475 0.072918
v -0.550686 3.184070 -0.108208
v -0.313576 3.150295 -0.122260
v -0.313576 2.983301 -0.155270
v -0.745103 3.322922 -0.077380
v -0.488569 2.777870 -0.109497
v -0.122974 2.983301 -0.077380
v 0.083048 3.023175 -0.077380
v -0.076467 3.184070 -0.108208
v -0.550686 3.184070 0.097932
v -0.745103 3.322922 0.077380
v -0.313576 3.150295 0.122260
v 0.117951 3.322922 -0.077380
v 0.428780 3.498448 -0.077380
v 0.038085 3.498448 -0.077380
v 0.038085 3.498448 0.077380
v 0.428780 3.498448 0.077380
v 0.403540 3.342258 0.077380
v 0.403540 3.342258 -0.077380
v 0.291656 3.166249 0.077380
v 0.291656 3.166249 -0.077380
v -1.055932 3.498448 0.077380
v -0.665237 3.498448 0.077380
v -0.665237 3.498448 -0.077380
v -1.055932 3.498448 -0.077380
v -1.030692 3.342258 -0.077380
v -1.030692 3.342258 0.077380
v -0.918808 3.166249 -0.077380
v -0.918808 3.166249 0.077380
v -0.126918 2.767475 -0.075270
v -0.320220 2.767475 -0.152594
v -0.094603 2.152756 -0.014130
v -0.250628 2.163466 0.146983
v -0.243844 1.743166 0.233280
v -0.044069 1.669233 -0.015111
v -0.243844 1.743166 -0.236816
v -0.250628 2.163466 -0.150593
v -0.282303 1.237916 -0.013600
v -0.361551 1.412398 -0.204434
v -0.438499 2.042328 -0.112840
v -0.465074 1.822947 -0.128322
v -0.465074 1.822947 0.124786
v -0.438499 2.042328 0.109231
v -0.455553 1.610169 0.106751
v -0.361551 1.412398 0.200115
v -0.455553 1.610169 -0.111070
v -0.672484 1.419908 0.148019
v -0.751944 1.278744 -0.006999
v -0.672484 1.419908 -0.152805
v -0.568206 1.540349 -0.084263
v -0.568206 1.540349 0.079477
v -0.890376 1.613958 -0.002160
vt 0.371092 0.499469 0.0
vt 0.424193 0.531948 0.0
vt 0.399304 0.572286 0.0
vt 0.331939 0.540745 0.0
vt 0.707149 0.588358 0.0
vt 0.714191 0.522396 0.0
vt 0.769633 0.519043 0.0
vt 0.771134 0.586166 0.0
vt 0.832918 0.589081 0.0
vt 0.897519 0.604315 0.0
vt 0.904549 0.699049 0.0
vt 0.844858 0.652844 0.0
vt 0.832918 0.589081 0.0
vt 0.771134 0.586166 0.0
vt 0.769633 0.519043 0.0
vt 0.835998 0.519955 0.0
vt 0.331939 0.540745 0.0
vt 0.349117 0.623462 0.0
vt 0.263108 0.613534 0.0
vt 0.253330 0.556658 0.0
vt 0.331939 0.540745 0.0
vt 0.399304 0.572286 0.0
vt 0.431068 0.668770 0.0
vt 0.349117 0.623462 0.0
vt 0.349819 0.450312 0.0
vt 0.371092 0.499469 0.0
vt 0.331939 0.540745 0.0
vt 0.294476 0.474390 0.0
vt 0.176806 0.568827 0.0
vt 0.122952 0.616547 0.0
vt 0.092229 0.586922 0.0
vt 0.120331 0.542899 0.0
vt 0.176806 0.568827 0.0
vt 0.253330 0.556658 0.0
vt 0.263108 0.613534 0.0
vt 0.185019 0.649763 0.0
vt 0.642961 0.604096 0.0
vt 0.707149 0.588358 0.0
vt 0.695717 0.652576 0.0
vt 0.636062 0.698886 0.0
vt 0.215560 0.701942 0.0
vt 0.185019 0.649763 0.0
vt 0.263108 0.613534 0.0
vt 0.275166 0.690860 0.0
vt 0.215560 0.701942 0.0
vt 0.169309 0.742266 0.0
vt 0.119446 0.716450 0.0
vt 0.185019 0.649763 0.0
vt 0.185019 0.649763 0.0
vt 0.119446 0.716450 0.0
vt 0.122952 0.616547 0.0
vt 0.176806 0.568827 0.0
vt 0.349117 0.623462 0.0
vt 0.336042 0.683597 0.0
vt 0.275166 0.690860 0.0
vt 0.263108 0.613534 0.0
vt 0.349117 0.623462 0.0
vt 0.431068 0.668770 0.0
vt 0.395317 0.708206 0.0
vt 0.336042 0.683597 0.0
vt 0.060499 0.755462 0.0
vt 0.119933 0.760161 0.0
vt 0.136109 0.800381 0.0
vt 0.028333 0.783177 0.0
vt 0.028333 0.783177 0.0
vt 0.000000 0.719199 0.0
vt 0.057142 0.719726 0.0
vt 0.060499 0.755462 0.0
vt 1.000000 0.758349 0.0
vt 0.877118 0.753205 0.0
vt 0.961245 0.652060 0.0
vt 0.994118 0.708892 0.0
vt 0.000000 0.719199 0.0
vt 0.039028 0.636531 0.0
vt 0.081203 0.660354 0.0
vt 0.057142 0.719726 0.0
vt 0.057142 0.719726 0.0
vt 0.081203 0.660354 0.0
vt 0.119933 0.760161 0.0
vt 0.060499 0.755462 0.0
vt 0.540652 0.724113 0.0
vt 0.421650 0.745016 0.0
vt 0.440995 0.710522 0.0
vt 0.485824 0.692714 0.0
vt 0.485824 0.692714 0.0
vt 0.485323 0.657498 0.0
vt 0.540652 0.644937 0.0
vt 0.540652 0.724113 0.0
vt 0.485824 0.692714 0.0
vt 0.440995 0.710522 0.0
vt 0.454718 0.603949 0.0
vt 0.485323 0.657498 0.0
vt 0.485323 0.657498 0.0
vt 0.454718 0.603949 0.0
vt 0.489498 0.574012 0.0
vt 0.540652 0.644937 0.0
vt 0.546466 0.708861 0.0
vt 0.579272 0.651956 0.0
vt 0.663583 0.753027 0.0
vt 0.540652 0.758349 0.0
vt 0.119446 0.716450 0.0
vt 0.169309 0.742266 0.0
vt 0.136109 0.800381 0.0
vt 0.119933 0.760161 0.0
vt 0.081203 0.660354 0.0
vt 0.122952 0.616547 0.0
vt 0.119446 0.716450 0.0
vt 0.119933 0.760161 0.0
vt 0.904549 0.699049 0.0
vt 0.897519 0.604315 0.0
vt 0.961245 0.652060 0.0
vt 0.877118 0.753205 0.0
vt 0.092229 0.586922 0.0
vt 0.122952 0.616547 0.0
vt 0.081203 0.660354 0.0
vt 0.039028 0.636531 0.0
vt 0.395317 0.708206 0.0
vt 0.431068 0.668770 0.0
vt 0.440995 0.710522 0.0
vt 0.421650 0.745016 0.0
vt 0.579272 0.651956 0.0
vt 0.642961 0.604096 0.0
vt 0.636062 0.698886 0.0
vt 0.663583 0.753027 0.0
vt 0.431068 0.668770 0.0
vt 0.399304 0.572286 0.0
vt 0.454718 0.603949 0.0
vt 0.440995 0.710522 0.0
vt 0.399304 0.572286 0.0
vt 0.424193 0.531948 0.0
vt 0.489498 0.574012 0.0
vt 0.454718 0.603949 0.0
vt 0.253330 0.556658 0.0
vt 0.176806 0.568827 0.0
vt 0.177319 0.491512 0.0
vt 0.241507 0.482694 0.0
vt 0.770334 0.639125 0.0
vt 0.771134 0.586166 0.0
vt 0.832918 0.589081 0.0
vt 0.844858 0.652844 0.0
vt 0.253330 0.556658 0.0
vt 0.241507 0.482694 0.0
vt 0.294476 0.474390 0.0
vt 0.331939 0.540745 0.0
vt 0.695717 0.652576 0.0
vt 0.707149 0.588358 0.0
vt 0.771134 0.586166 0.0
vt 0.770334 0.639125 0.0
vt 0.866995 0.319816 0.0
vt 0.793030 0.319392 0.0
vt 0.790547 0.189992 0.0
vt 0.885665 0.165426 0.0
vt 0.084067 0.202298 0.0
vt 0.163675 0.198717 0.0
vt 0.189486 0.309529 0.0
vt 0.132860 0.321397 0.0
vt 0.084067 0.202298 0.0
vt 0.094923 0.074801 0.0
vt 0.154623 0.111930 0.0
vt 0.163675 0.198717 0.0
vt 0.237415 0.264491 0.0
vt 0.226930 0.203070 0.0
vt 0.295960 0.193618 0.0
vt 0.299469 0.254286 0.0
vt 0.237415 0.264491 0.0
vt 0.189486 0.309529 0.0
vt 0.163675 0.198717 0.0
vt 0.226930 0.203070 0.0
vt 0.719796 0.212694 0.0
vt 0.790547 0.189992 0.0
vt 0.793030 0.319392 0.0
vt 0.728755 0.281650 0.0
vt 0.719796 0.212694 0.0
vt 0.723064 0.145756 0.0
vt 0.771262 0.097792 0.0
vt 0.790547 0.189992 0.0
vt 0.226930 0.203070 0.0
vt 0.217060 0.139075 0.0
vt 0.283198 0.135549 0.0
vt 0.295960 0.193618 0.0
vt 0.163675 0.198717 0.0
vt 0.154623 0.111930 0.0
vt 0.217060 0.139075 0.0
vt 0.226930 0.203070 0.0
vt 0.790547 0.189992 0.0
vt 0.771262 0.097792 0.0
vt 0.820032 0.028703 0.0
vt 0.885665 0.165426 0.0
vt 0.771262 0.097792 0.0
vt 0.693694 0.063471 0.0
vt 0.681639 0.000000 0.0
vt 0.820032 0.028703 0.0
vt 0.094923 0.074801 0.0
vt 0.190681 0.000000 0.0
vt 0.208229 0.052393 0.0
vt 0.154623 0.111930 0.0
vt 0.154623 0.111930 0.0
vt 0.208229 0.052393 0.0
vt 0.230971 0.096818 0.0
vt 0.217060 0.139075 0.0
vt 0.217060 0.139075 0.0
vt 0.230971 0.096818 0.0
vt 0.276940 0.102576 0.0
vt 0.283198 0.135549 0.0
vt 0.723064 0.145756 0.0
vt 0.695128 0.113932 0.0
vt 0.693694 0.063471 0.0
vt 0.771262 0.097792 0.0
vt 0.769633 0.519043 0.0
vt 0.793030 0.319392 0.0
vt 0.866995 0.319816 0.0
vt 0.835998 0.519955 0.0
vt 0.237415 0.264491 0.0
vt 0.294476 0.474390 0.0
vt 0.241507 0.482694 0.0
vt 0.189486 0.309529 0.0
vt 0.299469 0.254286 0.0
vt 0.349819 0.450312 0.0
vt 0.294476 0.474390 0.0
vt 0.237415 0.264491 0.0
vt 0.793030 0.319392 0.0
vt 0.769633 0.519043 0.0
vt 0.714191 0.522396 0.0
vt 0.728755 0.281650 0.0
vt 0.132860 0.321397 0.0
vt 0.189486 0.309529 0.0
vt 0.241507 0.482694 0.0
vt 0.177319 0.491512 0.0
vt 0.176806 0.568827 0.0
vt 0.120331 0.542899 0.0
vt 0.136532 0.491252 0.0
vt 0.177319 0.491512 0.0
vt 0.693694 0.063471 0.0
vt 0.599961 0.073996 0.0
vt 0.681639 0.000000 0.0
vt 0.190681 0.000000 0.0
vt 0.281908 0.015371 0.0
vt 0.208229 0.052393 0.0
vt 0.208229 0.052393 0.0
vt 0.281908 0.015371 0.0
vt 0.230971 0.096818 0.0
vt 0.230971 0.096818 0.0
vt 0.281908 0.015371 0.0
vt 0.276940 0.102576 0.0
vt 0.695128 0.113932 0.0
vt 0.599961 0.073996 0.0
vt 0.693694 0.063471 0.0
vt 0.136532 0.491252 0.0
vt 0.132860 0.321397 0.0
vt 0.177319 0.491512 0.0
vn -0.190017 -0.981781 0.000000
vn -0.317749 0.048842 0.946916
vn 0.109993 -0.017890 0.993771
vn 0.330100 -0.073594 0.941073
vn -0.211698 -0.020974 -0.977110
vn -0.111595 -0.079164 -0.990596
vn -0.997125 -0.075768 0.000000
vn 0.190017 -0.981781 0.000000
vn 0.211699 -0.020974 -0.977110
vn -0.074786 -0.053053 0.995787
vn -0.141022 0.990006 0.000000
vn -0.581188 0.813769 0.000000
vn 0.111594 -0.079164 -0.990596
vn 0.141021 0.990007 0.000000
vn 0.581190 0.813768 0.000000
vn 0.000000 1.000000 0.000000
vn 0.987193 -0.159530 0.000000
vn -0.000000 0.000000 1.000000
vn 0.843926 -0.536460 0.000000
vn 0.000000 -0.000000 -1.000000
vn -0.987193 -0.159528 0.000000
vn -0.843925 -0.536461 0.000000
vn -0.910207 -0.414153 0.000000
vn 0.565605 -0.824676 0.000000
vn 0.910207 -0.414153 0.000000
vn -0.565605 -0.824676 0.000000
vn 0.374757 -0.019470 -0.926919
vn 0.182196 0.065023 0.981110
vn -0.317292 0.059394 -0.946466
vn -0.232172 0.003589 0.972668
vn 0.761411 0.108615 0.639106
vn 0.718086 0.111815 -0.686914
vn 0.669784 -0.342141 -0.659036
vn -0.992743 0.120258 0.000000
vn -0.346508 0.157740 -0.924689
vn -0.346513 0.157947 0.924652
vn -0.523975 0.024093 0.851393
vn -0.999000 -0.044701 0.000000
vn -0.522612 0.026203 -0.852168
vn 0.703948 -0.354355 0.615540
vn -0.084641 -0.756924 0.647998
vn -0.095758 -0.726105 -0.680883
vn -0.226048 0.447527 -0.865229
vn -0.526804 0.849987 0.000000
vn -0.227859 0.447382 0.864829
vn 0.563405 -0.014100 0.826061
vn -0.215884 -0.018307 -0.976247
vn -0.997691 -0.067915 0.000000
vn -0.215346 -0.020092 0.976331
vn 0.521988 -0.000543 -0.852953
vn 0.999833 -0.018272 0.000000
vn -0.708469 -0.301783 0.637964
vn -0.702242 -0.280557 -0.654327
vn -0.086670 0.548371 -0.831732
vn 0.222739 0.974878 0.000000
vn -0.085714 0.547810 0.832200
vn 0.998621 0.052496 0.000000
usemtl Hilt.png
s off
f 1/1/1 2/2/1 3/3/1 4/4/1
f 1/5/2 5/6/2 6/7/2 7/8/2
f 8/9/3 9/10/3 10/11/3 11/12/3
f 8/13/4 7/14/4 6/15/4 12/16/4
f 4/17/5 13/18/5 14/19/5 15/20/5
f 4/21/6 3/22/6 16/23/6 13/24/6
f 5/25/7 1/26/7 4/27/7 17/28/7
f 18/29/8 19/30/8 9/31/8 8/32/8
f 18/33/9 15/34/9 14/35/9 20/36/9
f 2/37/10 1/38/10 21/39/10 22/40/10
f 11/41/11 20/42/11 14/43/11 23/44/11
f 11/45/12 10/46/12 24/47/12 20/48/12
f 20/49/13 24/50/13 19/51/13 18/52/13
f 13/53/14 21/54/14 23/55/14 14/56/14
f 13/57/15 16/58/15 22/59/15 21/60/15
f 25/61/16 26/62/16 27/63/16 28/64/16
f 28/65/17 29/66/17 30/67/17 25/68/17
f 28/69/18 27/70/18 31/71/18 29/72/18
f 29/73/19 31/74/19 32/75/19 30/76/19
f 30/77/20 32/78/20 26/79/20 25/80/20
f 33/81/16 34/82/16 35/83/16 36/84/16
f 36/85/21 37/86/21 38/87/21 33/88/21
f 36/89/20 35/90/20 39/91/20 37/92/20
f 37/93/22 39/94/22 40/95/22 38/96/22
f 38/97/18 40/98/18 34/99/18 33/100/18
f 24/101/23 10/102/23 27/103/23 26/104/23
f 32/105/20 19/106/20 24/107/20 26/108/20
f 10/109/18 9/110/18 31/111/18 27/112/18
f 9/113/24 19/114/24 32/115/24 31/116/24
f 22/117/25 16/118/25 35/119/25 34/120/25
f 40/121/18 2/122/18 22/123/18 34/124/18
f 16/125/20 3/126/20 39/127/20 35/128/20
f 3/129/26 2/130/26 40/131/26 39/132/26
f 15/133/27 18/134/27 41/135/27 42/136/27
f 23/137/28 7/138/28 8/139/28 11/140/28
f 15/141/29 42/142/29 17/143/29 4/144/29
f 21/145/30 1/146/30 7/147/30 23/148/30
f 43/149/31 44/150/31 45/151/31 46/152/31
f 46/153/32 47/154/32 48/155/32 43/156/32
f 46/157/33 49/158/33 50/159/33 47/160/33
f 51/161/34 52/162/34 53/163/34 54/164/34
f 51/165/35 48/166/35 47/167/35 52/168/35
f 53/169/36 45/170/36 44/171/36 54/172/36
f 53/173/37 55/174/37 56/175/37 45/176/37
f 52/177/38 57/178/38 55/179/38 53/180/38
f 47/181/39 50/182/39 57/183/39 52/184/39
f 45/185/40 56/186/40 49/187/40 46/188/40
f 56/189/41 58/190/41 59/191/41 49/192/41
f 49/193/42 59/194/42 60/195/42 50/196/42
f 50/197/43 60/198/43 61/199/43 57/200/43
f 57/201/44 61/202/44 62/203/44 55/204/44
f 55/205/45 62/206/45 58/207/45 56/208/45
f 6/209/46 44/210/46 43/211/46 12/212/46
f 51/213/47 17/214/47 42/215/47 48/216/47
f 54/217/48 5/218/48 17/219/48 51/220/48
f 44/221/49 6/222/49 5/223/49 54/224/49
f 43/225/50 48/226/50 42/227/50 41/228/50
f 18/229/51 8/230/51 12/231/51 41/232/51
f 58/233/52 63/234/52 59/235/52
f 59/236/53 63/237/53 60/238/53
f 60/239/54 63/240/54 61/241/54
f 61/242/55 63/243/55 62/244/55
f 62/245/56 63/246/56 58/247/56
f 12/248/57 43/249/57 41/250/57
o Blade
v 0.512573 9.453856 -0.000016
v 0.256840 8.717966 -0.000016
v -0.973783 6.941476 -0.000016
v -0.478015 8.153392 -0.000016
v 0.545063 4.113930 -0.000011
v 0.070511 5.993576 -0.000016
v 0.282043 5.200964 -0.000014
v 0.579775 4.731742 -0.000012
v 0.009377 3.871453 -0.000012
v -0.792867 4.012029 -0.000016
v 0.108137 7.713272 -0.000016
v -0.595607 3.057741 -0.000015
v 0.045388 3.050804 -0.000013
v -1.112597 5.708816 -0.000016
v -0.275110 3.054272 -0.100014
v -0.391745 3.941741 -0.100014
v -0.391745 3.941741 0.099986
v -0.275110 3.054272 0.099986
v -0.110588 8.435678 -0.100016
v -0.110588 8.435678 0.099984
v -0.184939 7.933332 -0.100016
v -0.184939 7.933332 0.099984
v -0.432823 7.327374 -0.100016
v -0.432823 7.327374 0.099984
v -0.451636 6.467526 -0.100016
v -0.451636 6.467526 0.099984
v -0.521043 5.851196 -0.100016
v -0.521043 5.851196 0.099984
v -0.415277 5.454890 -0.100015
v -0.415277 5.454890 0.099985
v -0.255412 4.606497 -0.100015
v -0.255412 4.606497 0.099985
v 0.145710 4.536209 0.049987
v 0.145710 4.536209 -0.050013
vt 0.157451 0.016852 0.0
vt 0.109510 0.029677 0.0
vt 0.106161 0.000000 0.0
vt 0.059435 0.027847 0.0
vt 0.106161 0.000000 0.0
vt 0.109510 0.029677 0.0
vt 0.460696 0.447457 0.0
vt 0.379128 0.648192 0.0
vt 0.378744 0.517812 0.0
vt 0.460696 0.447457 0.0
vt 0.461384 0.708320 0.0
vt 0.379128 0.648192 0.0
vt 0.461384 0.708320 0.0
vt 0.414094 0.740742 0.0
vt 0.379128 0.648192 0.0
vt 0.461384 0.708320 0.0
vt 0.423990 0.814559 0.0
vt 0.414094 0.740742 0.0
vt 0.477827 0.859001 0.0
vt 0.423990 0.814559 0.0
vt 0.461384 0.708320 0.0
vt 0.507356 0.972035 0.0
vt 0.423990 0.814559 0.0
vt 0.477827 0.859001 0.0
vt 0.460696 0.447457 0.0
vt 0.378744 0.517812 0.0
vt 0.370136 0.424139 0.0
vt 0.460696 0.447457 0.0
vt 0.370136 0.424139 0.0
vt 0.387114 0.364272 0.0
vt 0.460696 0.447457 0.0
vt 0.387114 0.364272 0.0
vt 0.494630 0.327794 0.0
vt 0.494630 0.327794 0.0
vt 0.387114 0.364272 0.0
vt 0.413490 0.235858 0.0
vt 0.494630 0.327794 0.0
vt 0.413490 0.235858 0.0
vt 0.475120 0.226389 0.0
vt 0.457444 0.124654 0.0
vt 0.475120 0.226389 0.0
vt 0.413490 0.235858 0.0
vt 0.494630 0.327794 0.0
vt 0.475120 0.226389 0.0
vt 0.540840 0.257376 0.0
vt 0.537574 0.163631 0.0
vt 0.540840 0.257376 0.0
vt 0.475120 0.226389 0.0
vt 0.537574 0.163631 0.0
vt 0.475120 0.226389 0.0
vt 0.457444 0.124654 0.0
vt 0.457444 0.124654 0.0
vt 0.394908 0.134830 0.0
vt 0.462825 0.000000 0.0
vt 0.365168 0.000000 0.0
vt 0.462825 0.000000 0.0
vt 0.394908 0.134830 0.0
vt 0.332151 0.144109 0.0
vt 0.365168 0.000000 0.0
vt 0.394908 0.134830 0.0
vt 0.457444 0.124654 0.0
vt 0.413490 0.235858 0.0
vt 0.394908 0.134830 0.0
vt 0.332151 0.144109 0.0
vt 0.394908 0.134830 0.0
vt 0.413490 0.235858 0.0
vt 0.332151 0.144109 0.0
vt 0.413490 0.235858 0.0
vt 0.387114 0.364272 0.0
vt 0.332151 0.144109 0.0
vt 0.387114 0.364272 0.0
vt 0.279541 0.400831 0.0
vt 0.279541 0.400831 0.0
vt 0.387114 0.364272 0.0
vt 0.370136 0.424139 0.0
vt 0.279541 0.400831 0.0
vt 0.370136 0.424139 0.0
vt 0.378744 0.517812 0.0
vt 0.296788 0.588204 0.0
vt 0.279541 0.400831 0.0
vt 0.378744 0.517812 0.0
vt 0.296788 0.588204 0.0
vt 0.378744 0.517812 0.0
vt 0.379128 0.648192 0.0
vt 0.296788 0.588204 0.0
vt 0.379128 0.648192 0.0
vt 0.366951 0.773941 0.0
vt 0.366951 0.773941 0.0
vt 0.379128 0.648192 0.0
vt 0.414094 0.740742 0.0
vt 0.366951 0.773941 0.0
vt 0.414094 0.740742 0.0
vt 0.423990 0.814559 0.0
vt 0.507356 0.972035 0.0
vt 0.366951 0.773941 0.0
vt 0.423990 0.814559 0.0
vt 0.101324 1.000000 0.0
vt 0.122263 0.884572 0.0
vt 0.172539 0.836657 0.0
vt 0.101324 1.000000 0.0
vt 0.172539 0.836657 0.0
vt 0.226254 0.791547 0.0
vt 0.226254 0.791547 0.0
vt 0.172539 0.836657 0.0
vt 0.175646 0.762001 0.0
vt 0.122263 0.884572 0.0
vt 0.175646 0.762001 0.0
vt 0.172539 0.836657 0.0
vt 0.122263 0.884572 0.0
vt 0.126102 0.733922 0.0
vt 0.175646 0.762001 0.0
vt 0.126102 0.733922 0.0
vt 0.202637 0.666554 0.0
vt 0.175646 0.762001 0.0
vt 0.226254 0.791547 0.0
vt 0.175646 0.762001 0.0
vt 0.202637 0.666554 0.0
vt 0.279541 0.599083 0.0
vt 0.226254 0.791547 0.0
vt 0.202637 0.666554 0.0
vt 0.279541 0.599083 0.0
vt 0.202637 0.666554 0.0
vt 0.191161 0.536242 0.0
vt 0.126102 0.733922 0.0
vt 0.191161 0.536242 0.0
vt 0.202637 0.666554 0.0
vt 0.102875 0.473486 0.0
vt 0.191161 0.536242 0.0
vt 0.126102 0.733922 0.0
vt 0.102875 0.473486 0.0
vt 0.191178 0.441884 0.0
vt 0.191161 0.536242 0.0
vt 0.102875 0.473486 0.0
vt 0.168724 0.383647 0.0
vt 0.191178 0.441884 0.0
vt 0.102875 0.473486 0.0
vt 0.057988 0.357085 0.0
vt 0.168724 0.383647 0.0
vt 0.057988 0.357085 0.0
vt 0.130568 0.257837 0.0
vt 0.168724 0.383647 0.0
vt 0.057988 0.357085 0.0
vt 0.068187 0.254008 0.0
vt 0.130568 0.257837 0.0
vt 0.139611 0.155165 0.0
vt 0.130568 0.257837 0.0
vt 0.068187 0.254008 0.0
vt 0.076407 0.150736 0.0
vt 0.139611 0.155165 0.0
vt 0.068187 0.254008 0.0
vt 0.076407 0.150736 0.0
vt 0.059435 0.027847 0.0
vt 0.139611 0.155165 0.0
vt 0.059435 0.027847 0.0
vt 0.109510 0.029677 0.0
vt 0.139611 0.155165 0.0
vt 0.157451 0.016852 0.0
vt 0.139611 0.155165 0.0
vt 0.109510 0.029677 0.0
vt 0.203387 0.158688 0.0
vt 0.139611 0.155165 0.0
vt 0.157451 0.016852 0.0
vt 0.000000 0.197084 0.0
vt 0.076407 0.150736 0.0
vt 0.068187 0.254008 0.0
vt 0.000000 0.197084 0.0
vt 0.068187 0.254008 0.0
vt 0.005390 0.291009 0.0
vt 0.057988 0.357085 0.0
vt 0.005390 0.291009 0.0
vt 0.068187 0.254008 0.0
vt 0.279541 0.599083 0.0
vt 0.191161 0.536242 0.0
vt 0.279541 0.410284 0.0
vt 0.279541 0.410284 0.0
vt 0.191161 0.536242 0.0
vt 0.191178 0.441884 0.0
vt 0.279541 0.410284 0.0
vt 0.191178 0.441884 0.0
vt 0.168724 0.383647 0.0
vt 0.203387 0.158688 0.0
vt 0.279541 0.410284 0.0
vt 0.168724 0.383647 0.0
vt 0.203387 0.158688 0.0
vt 0.168724 0.383647 0.0
vt 0.130568 0.257837 0.0
vt 0.203387 0.158688 0.0
vt 0.130568 0.257837 0.0
vt 0.139611 0.155165 0.0
vn -0.651814 -0.668355 -0.358318
vn -0.001679 -0.604236 -0.796777
vn -0.010804 -0.999939 0.000000
vn 0.700186 -0.580309 -0.415815
vn 0.994018 0.109012 0.000000
vn 0.994263 -0.106906 0.000000
vn -0.117740 0.115299 0.986297
vn 0.969420 -0.245338 0.000000
vn -0.329264 0.944212 0.000000
vn 0.927854 0.372875 0.000000
vn 0.019166 -0.009491 0.999756
vn 0.097934 -0.024598 0.994873
vn 0.955260 -0.290384 -0.055696
vn 0.971648 0.236335 0.000000
vn 0.863796 -0.503830 0.000000
vn -0.008057 -0.031709 0.999451
vn -0.983764 -0.179327 0.000000
vn -0.999451 -0.031495 -0.009186
vn -0.962828 0.270028 0.000000
vn -0.860561 0.509293 0.000000
vn -0.117740 0.115299 -0.986297
vn -0.001953 0.000214 -0.999969
vn -0.033662 0.008271 -0.999390
vn 0.125034 -0.046571 -0.991028
vn 0.008606 -0.009705 -0.999908
usemtl (null)
s 1
f 75/251/58 78/252/59 81/253/60
f 76/254/61 81/255/60 78/256/59
usemtl blade.png
f 69/257/62 87/258/18 89/259/18
f 69/260/62 74/261/63 87/262/18
f 74/263/63 85/264/18 87/265/18
f 74/266/63 83/267/64 85/268/18
f 65/269/65 83/270/64 74/271/63
f 64/272/66 83/273/64 65/274/65
f 69/275/62 89/276/18 91/277/18
f 69/278/62 91/279/18 93/280/18
f 69/281/62 93/282/18 70/283/67
f 70/284/67 93/285/18 95/286/68
f 70/287/67 95/288/68 96/289/69
f 72/290/70 96/291/69 95/292/68
f 70/293/67 96/294/69 71/295/71
f 68/296/72 71/297/71 96/298/69
f 68/299/72 96/300/69 72/301/70
f 72/302/70 80/303/73 76/304/61
f 75/305/58 76/306/61 80/307/73
f 73/308/74 75/309/58 80/310/73
f 72/311/70 95/312/68 80/313/73
f 73/314/74 80/315/73 95/316/68
f 73/317/74 95/318/68 93/319/18
f 73/320/74 93/321/18 77/322/75
f 77/323/75 93/324/18 91/325/18
f 77/326/75 91/327/18 89/328/18
f 66/329/76 77/330/75 89/331/18
f 66/332/76 89/333/18 87/334/18
f 66/335/76 87/336/18 67/337/77
f 67/338/77 87/339/18 85/340/18
f 67/341/77 85/342/18 83/343/64
f 64/344/66 67/345/77 83/346/64
f 64/347/66 65/348/65 82/349/78
f 64/350/66 82/351/78 67/352/77
f 67/353/77 82/354/78 84/355/20
f 65/356/65 84/357/20 82/358/78
f 65/359/65 74/360/63 84/361/20
f 74/362/63 86/363/20 84/364/20
f 67/365/77 84/366/20 86/367/20
f 66/368/76 67/369/77 86/370/20
f 66/371/76 86/372/20 88/373/79
f 74/374/63 88/375/79 86/376/20
f 69/377/62 88/378/79 74/379/63
f 69/380/62 90/381/20 88/382/79
f 69/383/62 92/384/20 90/385/20
f 69/386/62 70/387/67 92/388/20
f 70/389/67 94/390/80 92/391/20
f 70/392/67 97/393/81 94/394/80
f 79/395/82 94/396/80 97/397/81
f 72/398/70 79/399/82 97/400/81
f 72/401/70 76/402/61 79/403/82
f 76/404/61 78/405/59 79/406/82
f 75/407/58 79/408/82 78/409/59
f 73/410/74 79/411/82 75/412/58
f 68/413/72 72/414/70 97/415/81
f 68/416/72 97/417/81 71/418/71
f 70/419/67 71/420/71 97/421/81
f 66/422/76 88/423/79 77/424/75
f 77/425/75 88/426/79 90/427/20
f 77/428/75 90/429/20 92/430/20
f 73/431/74 77/432/75 92/433/20
f 73/434/74 92/435/20 94/436/80
f 73/437/74 94/438/80 79/439/82
